<svg xmlns="http://www.w3.org/2000/svg" width="225" height="225" viewBox="0 0 225 225" version="1.1"><path d="M 98.635 1.135 C 73.644 4.344, 51.440 15.314, 33.377 33.377 C -10.992 77.747, -10.644 149.056, 34.153 192.616 C 78.120 235.369, 146.880 235.369, 190.847 192.616 C 208.861 175.099, 221.530 149.548, 223.695 126.367 C 224.025 122.830, 224.679 119.699, 225.148 119.409 C 225.616 119.119, 226 115.507, 226 111.382 C 226 107.257, 225.614 104.121, 225.142 104.412 C 224.670 104.704, 224.016 102.076, 223.689 98.572 C 219.669 55.528, 184.295 15.007, 141.177 4.055 C 126.254 0.265, 112.668 -0.668, 98.635 1.135 M 91.622 3.555 C 68.895 8.070, 51.328 17.560, 34.444 34.444 C 12.289 56.600, 2 81.353, 2 112.500 C 2 143.647, 12.289 168.400, 34.444 190.556 C 51.606 207.717, 69.063 217.047, 92.348 221.502 C 103.402 223.617, 123.291 223.432, 134.500 221.109 C 176.228 212.461, 208.438 181.731, 220.216 139.330 C 222.098 132.554, 222.391 128.943, 222.391 112.500 C 222.391 96.057, 222.098 92.446, 220.216 85.670 C 214.379 64.657, 204.149 47.190, 189.362 32.989 C 172.690 16.978, 154.984 7.771, 132.652 3.498 C 122.960 1.643, 101.089 1.674, 91.622 3.555 M 94.919 3.948 C 50.810 12.011, 17.255 43.123, 5.883 86.500 C 3.850 94.258, 3.524 97.847, 3.524 112.500 C 3.524 127.153, 3.850 130.742, 5.883 138.500 C 16.307 178.261, 45.280 207.780, 84.630 218.730 C 93.715 221.258, 95.931 221.477, 112.500 221.477 C 129.069 221.477, 131.285 221.258, 140.370 218.730 C 179.720 207.780, 208.693 178.261, 219.117 138.500 C 221.150 130.742, 221.476 127.153, 221.476 112.500 C 221.476 97.847, 221.150 94.258, 219.117 86.500 C 208.750 46.954, 179.701 17.218, 140.893 6.426 C 132.982 4.226, 128.976 3.758, 115.500 3.462 C 106.700 3.269, 97.439 3.488, 94.919 3.948 M 117.500 8 C 117.840 8.550, 118.568 9, 119.118 9 C 119.668 9, 119.840 8.550, 119.500 8 C 119.160 7.450, 118.432 7, 117.882 7 C 117.332 7, 117.160 7.450, 117.500 8 M 92.316 9.899 C 92.014 11.055, 91.144 12, 90.383 12 C 89.623 12, 89 12.970, 89 14.155 C 89 16.249, 88.943 16.258, 86.994 14.494 C 84.011 11.795, 83.609 13.253, 86.211 17.330 C 88.850 21.463, 90.159 21.969, 89.882 18.750 C 89.776 17.512, 89.766 15.600, 89.860 14.500 C 90.002 12.830, 90.190 12.747, 91 14 C 91.533 14.825, 91.976 16.565, 91.985 17.867 C 91.997 19.830, 92.383 20.131, 94.250 19.630 C 95.487 19.299, 97.225 19.021, 98.111 19.014 C 99.313 19.003, 99.594 18.327, 99.216 16.351 C 98.678 13.533, 99.555 13.633, 103.256 16.813 C 105.683 18.897, 106.188 17.970, 105.116 13.401 C 104.292 9.888, 104.191 9.791, 104.100 12.424 L 104 15.349 101.686 13.174 C 100.247 11.823, 98.070 10.994, 95.936 10.985 C 93.629 10.974, 92.946 10.687, 93.857 10.110 C 94.864 9.472, 94.911 9.063, 94.039 8.524 C 93.321 8.080, 92.652 8.613, 92.316 9.899 M 109.824 13.990 C 110.746 16.184, 111.769 17.984, 112.098 17.990 C 112.427 17.995, 113.404 16.200, 114.268 14 C 115.132 11.800, 115.474 10, 115.028 10 C 114.582 10, 113.888 11.238, 113.485 12.750 L 112.753 15.500 111.793 12.750 C 111.265 11.238, 110.229 10, 109.491 10 C 108.423 10, 108.492 10.817, 109.824 13.990 M 117.526 12.950 C 115.816 16.256, 115.380 19.523, 116.985 17 C 117.791 15.733, 118.270 15.705, 120.067 16.819 C 122.887 18.568, 123.149 18.096, 121.800 13.699 C 120.428 9.229, 119.531 9.072, 117.526 12.950 M 139.563 10.898 C 139.246 11.410, 139.553 12.057, 140.244 12.336 C 140.935 12.614, 140.543 12.878, 139.372 12.921 C 136.588 13.024, 134.765 15.314, 135.173 18.195 C 135.438 20.064, 136.114 20.498, 138.750 20.490 C 140.937 20.484, 142 20.958, 142 21.940 C 142 24.095, 143.542 22.053, 144.831 18.193 C 145.855 15.127, 145.792 14.931, 143.968 15.510 C 142.068 16.113, 141.541 15.298, 141.908 12.325 C 142.098 10.790, 140.304 9.698, 139.563 10.898 M 125.975 13.565 C 124.587 17.217, 124.814 20.204, 126.237 17 C 127.344 14.506, 127.348 14.505, 127.743 16.750 C 128.169 19.171, 129.580 19.761, 130.236 17.792 C 130.631 16.607, 128.291 11, 127.402 11 C 127.154 11, 126.512 12.154, 125.975 13.565 M 93 13 C 93 13.550, 94.013 14.014, 95.250 14.030 C 97.259 14.058, 97.313 14.170, 95.750 15.080 C 93.400 16.449, 93.533 18, 96 18 C 97.556 18, 98 17.333, 98 15 C 98 12.467, 97.611 12, 95.500 12 C 94.125 12, 93 12.450, 93 13 M 132.211 13.250 C 131.044 14.661, 131.760 20, 133.117 20 C 133.602 20, 134 18.912, 134 17.582 C 134 16.252, 134.273 14.452, 134.607 13.582 C 135.329 11.700, 133.681 11.472, 132.211 13.250 M 118.500 14 C 118.160 14.550, 118.359 15, 118.941 15 C 119.523 15, 120 14.550, 120 14 C 120 13.450, 119.802 13, 119.559 13 C 119.316 13, 118.840 13.450, 118.500 14 M 82.670 16.500 C 83.582 21.167, 83.577 21.222, 82.201 21.725 C 81.431 22.006, 80.424 20.936, 79.732 19.100 C 79.088 17.395, 78.210 16, 77.781 16 C 76.781 16, 76.789 16.097, 78.098 19.851 C 79.275 23.229, 81.910 24.019, 83.920 21.597 C 84.815 20.518, 84.737 19.419, 83.584 16.847 L 82.083 13.500 82.670 16.500 M 136.989 16.021 C 135.777 18.286, 136.424 20, 138.492 20 C 140.051 20, 141.449 16.536, 140.506 15.009 C 139.528 13.427, 138.168 13.818, 136.989 16.021 M 149 17.025 C 149 17.561, 149.439 18, 149.975 18 C 150.609 18, 150.609 18.898, 149.975 20.565 C 148.756 23.771, 148.741 25, 149.921 25 C 150.427 25, 151.138 23.650, 151.500 22 C 151.862 20.350, 152.798 19, 153.579 19 C 155.362 19, 155.354 19.415, 153.504 22.993 C 151.878 26.137, 153.177 28.244, 154.908 25.271 C 155.848 23.656, 155.942 23.688, 155.970 25.635 C 156.012 28.647, 160.754 31.635, 163.133 30.149 C 164.548 29.265, 164.816 29.315, 164.405 30.386 C 163.612 32.453, 166.866 35.177, 169.231 34.427 C 170.753 33.944, 171.054 34.120, 170.453 35.143 C 170.015 35.889, 170.634 35.643, 171.828 34.595 L 174 32.690 174 36.345 C 174 40.785, 175.169 40.976, 178 37 C 179.175 35.350, 179.704 34, 179.175 34 C 178.646 34, 177.878 34.788, 177.467 35.750 C 176.874 37.138, 176.532 36.777, 175.812 34 C 175.312 32.075, 174.850 29.918, 174.785 29.207 C 174.720 28.496, 174.067 28.144, 173.333 28.426 C 172.444 28.767, 172 28.115, 172 26.469 C 172 25.111, 171.544 24, 170.986 24 C 170.400 24, 170.203 25.314, 170.519 27.108 C 171.095 30.378, 169.697 33, 167.378 33 C 165.291 33, 165.727 30.332, 168.189 28.039 C 169.397 26.913, 169.819 26, 169.130 26 C 168.443 26, 168.160 25.550, 168.500 25 C 168.840 24.450, 168.428 24, 167.585 24 C 166.741 24, 165.353 25.350, 164.500 27 C 163.647 28.650, 162.537 30, 162.033 30 C 160.156 30, 159.968 27.963, 161.560 24.884 C 163.051 22.002, 163.054 21.765, 161.601 22.323 C 160.720 22.661, 160 22.513, 160 21.994 C 160 21.041, 156.102 18.750, 151.507 17.003 C 149.893 16.389, 149 16.397, 149 17.025 M 71.046 18.445 C 69.469 20.345, 70.070 24.026, 72.172 25.344 C 74.480 26.790, 79.188 24.654, 78.373 22.530 C 77.557 20.402, 76.333 20.620, 75.709 23.004 C 74.979 25.797, 72 24.477, 72 21.361 C 72 19.780, 72.784 18.621, 74.250 18.031 C 76.459 17.143, 76.461 17.126, 74.372 17.063 C 73.202 17.029, 71.705 17.650, 71.046 18.445 M 67.042 21.050 C 67.019 21.902, 67.563 23.206, 68.250 23.947 C 69.278 25.055, 69.145 25.157, 67.500 24.519 C 63.964 23.147, 61 22.743, 61.007 23.633 C 61.010 24.110, 61.907 25.850, 63 27.500 C 65.071 30.627, 65.748 30.265, 63.986 26.974 C 63.015 25.159, 63.143 25.139, 66.986 26.495 C 69.194 27.274, 70.981 27.594, 70.958 27.206 C 70.861 25.577, 67.080 19.634, 67.042 21.050 M 156.500 22 C 156.160 22.550, 156.359 23, 156.941 23 C 157.523 23, 158 22.550, 158 22 C 158 21.450, 157.802 21, 157.559 21 C 157.316 21, 156.840 21.450, 156.500 22 M 101 23.584 C 78.596 27.592, 62.977 35.583, 48.500 50.442 C 32.283 67.087, 23.015 89.656, 23.015 112.500 C 23.015 135.344, 32.283 157.913, 48.500 174.558 C 60.741 187.122, 74.277 194.987, 91.584 199.589 C 101.273 202.166, 123.727 202.166, 133.416 199.589 C 150.073 195.159, 163.944 187.277, 175.610 175.610 C 187.184 164.037, 194.223 151.719, 199.209 134.316 C 202.428 123.081, 202.428 101.919, 199.209 90.684 C 189.652 57.324, 167.143 34.750, 134.500 25.785 C 127.722 23.924, 106.790 22.548, 101 23.584 M 157 24.941 C 157 26.617, 158.774 27.033, 159.364 25.494 C 159.712 24.587, 159.361 24, 158.469 24 C 157.661 24, 157 24.423, 157 24.941 M 100.500 25.940 C 75.264 30.115, 54.689 42.793, 40.990 62.609 C 30.180 78.246, 25.641 92.782, 25.568 112 C 25.511 126.847, 27.995 138.308, 33.815 150.059 C 37.992 158.494, 36.020 157.832, 53 156.500 C 73.346 154.903, 90.202 161.107, 104.391 175.412 L 112.500 183.588 116.367 179.044 C 131.972 160.710, 154.672 152.952, 179.808 157.362 L 187.115 158.644 190.996 150.572 C 197.164 137.740, 199.354 127.799, 199.380 112.500 C 199.398 102.158, 198.947 97.796, 197.172 91.163 C 188.695 59.481, 165.162 35.956, 133.983 27.996 C 124.774 25.644, 108.373 24.637, 100.500 25.940 M 56 26.596 C 56 28.119, 59.568 33, 60.682 33 C 61.528 33, 61.264 31.867, 59.867 29.500 C 58.051 26.422, 56 24.881, 56 26.596 M 49 28 C 49 28.550, 49.477 29, 50.059 29 C 50.641 29, 50.840 28.550, 50.500 28 C 50.160 27.450, 49.684 27, 49.441 27 C 49.198 27, 49 27.450, 49 28 M 100.852 31.658 C 88.583 37.770, 76.698 49.190, 71.764 59.607 C 68.643 66.198, 68.500 67.025, 68.500 78.500 C 68.500 89.752, 68.696 90.950, 71.640 97.718 C 75.745 107.156, 81.514 115.023, 94.305 128.623 C 100.059 134.740, 105.928 141.727, 107.346 144.148 C 111.536 151.297, 113.335 160.132, 112.720 170.541 L 112.185 179.582 118.507 173.383 C 121.984 169.974, 126.895 165.974, 129.420 164.494 C 133.943 161.843, 135.836 158.621, 134.664 155.567 C 134.361 154.776, 134.516 153.988, 135.009 153.815 C 135.502 153.642, 136.203 151.630, 136.566 149.345 C 137.126 145.812, 136.946 145.118, 135.363 144.711 C 133.822 144.315, 133.889 144.212, 135.750 144.116 C 138.917 143.953, 138.556 142.217, 135.250 141.716 L 132.500 141.300 135.250 141.150 C 137.588 141.022, 138 140.562, 138 138.082 C 138 136.477, 138.264 134.477, 138.586 133.637 C 139.056 132.411, 138.123 132.038, 133.836 131.740 L 128.500 131.370 133.649 131.185 L 138.799 131 139.154 126.534 L 139.509 122.069 130.504 121.742 L 121.500 121.415 130.750 121.208 C 135.883 121.092, 140 120.570, 140 120.035 C 140 119.499, 135.445 118.926, 129.750 118.746 L 119.500 118.422 129.857 118.211 C 137.659 118.052, 140.098 117.692, 139.745 116.750 C 139.488 116.063, 139.633 114.600, 140.068 113.500 C 140.713 111.871, 140.872 112.103, 140.930 114.750 L 141 118 157 118 L 173 118 173 115 C 173 113.350, 173.417 112, 173.927 112 C 174.437 112, 174.684 113.350, 174.475 115 L 174.095 118 186.129 118 L 198.163 118 197.582 108.949 C 197.262 103.970, 196.289 96.770, 195.420 92.949 L 193.840 86 182.451 86 C 172.739 86, 171.147 86.221, 171.638 87.500 C 171.955 88.325, 171.716 89, 171.107 89 C 170.498 89, 170 88.325, 170 87.500 C 170 86.233, 167.667 86, 155 86 C 142.333 86, 140 86.233, 140 87.500 C 140 88.325, 139.550 89, 139 89 C 138.450 89, 138 88.334, 138 87.520 C 138 86.271, 134.770 85.995, 117.250 85.749 L 96.500 85.457 117.244 85.229 L 137.987 85 137.568 82.750 C 137.337 81.513, 137.115 79.487, 137.074 78.250 L 137 76 114.750 75.771 L 92.500 75.541 114.250 75.251 C 143.112 74.866, 143.112 73.134, 114.250 72.749 L 92.500 72.459 114.357 72.229 C 133.819 72.025, 136.147 71.827, 135.607 70.418 C 135.273 69.548, 135 68.198, 135 67.418 C 135 66.244, 131.252 65.961, 113.250 65.771 L 91.500 65.542 112.750 65.251 C 141.443 64.858, 141.084 63.075, 112.250 62.771 L 90.500 62.542 111.750 62.251 C 123.438 62.091, 133 61.684, 133 61.346 C 133 61.008, 132.479 58.992, 131.842 56.866 L 130.683 53 111.092 52.773 L 91.500 52.546 110.750 52.251 C 121.338 52.089, 129.993 51.629, 129.985 51.228 C 129.936 48.931, 127.292 48.494, 113 48.422 C 104.002 48.377, 96.451 47.879, 95 47.236 C 92.836 46.276, 92.769 46.117, 94.500 46.057 C 95.600 46.018, 99.886 46.502, 104.025 47.132 C 114.130 48.670, 127.249 47.533, 126.794 45.159 C 126.519 43.723, 124.323 43.427, 110.488 42.961 L 94.500 42.423 109.750 42.211 C 129.619 41.936, 130.382 40.082, 110.750 39.782 L 96.500 39.563 109.750 39.253 C 117.037 39.082, 123 38.596, 123 38.174 C 123 37.752, 121.294 35.740, 119.208 33.703 C 116.220 30.786, 114.576 29.972, 111.458 29.868 L 107.500 29.737 111 29.105 C 113.769 28.604, 114.118 28.319, 112.668 27.736 C 111.661 27.331, 110.694 27, 110.520 27 C 110.346 27, 105.995 29.096, 100.852 31.658 M 121.762 28.707 C 123.006 28.946, 124.806 28.937, 125.762 28.687 C 126.718 28.437, 125.700 28.241, 123.500 28.252 C 121.300 28.263, 120.518 28.468, 121.762 28.707 M 52.323 33.548 L 52.973 38.500 51.004 36 C 49.922 34.625, 49.239 32.936, 49.488 32.247 C 49.777 31.444, 49.013 31.601, 47.360 32.684 C 44.868 34.316, 44.850 34.400, 46.824 35.131 C 47.949 35.547, 49.371 36.825, 49.985 37.972 C 51.285 40.401, 52.739 39.817, 54.062 36.336 C 54.796 34.406, 55.465 34.013, 57.119 34.538 C 60.296 35.546, 59.071 33.281, 55.069 30.747 L 51.673 28.596 52.323 33.548 M 120.396 32.750 C 121.808 34.263, 123.546 36.313, 124.259 37.307 C 125.302 38.759, 126.676 39.053, 131.277 38.807 L 136.998 38.500 131.249 35.604 C 128.087 34.012, 124.306 32.099, 122.846 31.354 C 118.624 29.200, 117.618 29.773, 120.396 32.750 M 130.763 33.519 C 134.691 35.454, 138.178 37.479, 138.512 38.019 C 139.252 39.217, 151.673 39.338, 152.405 38.154 C 152.918 37.323, 147.671 34.705, 139.230 31.581 C 136.881 30.711, 132.408 30, 129.290 30 L 123.620 30 130.763 33.519 M 172 31.059 C 172 31.641, 172.450 31.840, 173 31.500 C 173.550 31.160, 174 30.684, 174 30.441 C 174 30.198, 173.550 30, 173 30 C 172.450 30, 172 30.477, 172 31.059 M 39.932 39.126 C 37.395 43.867, 42.678 48.179, 46.429 44.429 C 48.547 42.310, 48.412 41.726, 46.132 43.149 C 42.377 45.495, 39.069 41.331, 42.200 38.200 C 43.093 37.307, 43.102 37, 42.235 37 C 41.595 37, 40.558 37.957, 39.932 39.126 M 178.200 38.200 C 176.417 39.983, 176.742 42.457, 179.031 44.528 C 180.965 46.278, 181.145 46.282, 182.781 44.617 C 184.412 42.958, 184.359 42.903, 181.750 43.543 C 179.447 44.107, 179 43.894, 179 42.231 C 179 41.139, 179.618 39.732, 180.373 39.105 C 181.899 37.839, 185 38.622, 185 40.274 C 185 40.856, 185.289 41.044, 185.643 40.691 C 186.736 39.598, 183.874 37, 181.578 37 C 180.380 37, 178.860 37.540, 178.200 38.200 M 126.500 41 C 126.840 41.550, 130.129 42.087, 133.809 42.193 L 140.500 42.385 134.250 42.740 C 128.417 43.072, 126.614 44.025, 129.015 45.509 C 130.598 46.488, 141 43.831, 141 42.448 C 141 40.645, 138.590 40, 131.859 40 C 128.129 40, 126.114 40.376, 126.500 41 M 142.767 41.167 C 143.631 42.031, 144.530 42.048, 146.217 41.235 C 148.361 40.202, 148.290 40.131, 145.050 40.068 C 142.420 40.016, 141.878 40.278, 142.767 41.167 M 150 41 C 148.940 41.685, 150.261 41.969, 154.500 41.969 C 158.739 41.969, 160.060 41.685, 159 41 C 158.175 40.467, 156.150 40.031, 154.500 40.031 C 152.850 40.031, 150.825 40.467, 150 41 M 148.985 46.485 C 153.507 51.150, 152.365 51.893, 147.510 47.445 C 144.961 45.111, 143.124 44.149, 142.079 44.603 C 141.211 44.980, 138.119 45.752, 135.210 46.319 C 131.325 47.075, 130.063 47.723, 130.460 48.756 C 130.757 49.530, 131 50.568, 131 51.062 C 131 51.565, 140.036 51.958, 151.500 51.955 C 162.775 51.951, 172 51.745, 172 51.497 C 172 51.249, 169.710 49.236, 166.910 47.023 C 161.915 43.075, 161.669 43, 153.714 43 L 145.608 43 148.985 46.485 M 33.496 46.014 C 32.510 49.118, 35.471 51.959, 39.533 51.806 C 42.527 51.694, 42.724 51.497, 41.754 49.591 C 41.168 48.441, 40.376 46.825, 39.994 46 C 39.611 45.175, 38.145 44.361, 36.735 44.192 C 34.843 43.964, 33.995 44.442, 33.496 46.014 M 186.004 46.496 C 183.477 49.186, 183.914 51.146, 186.552 48.957 C 187.889 47.847, 188.301 47.865, 189.058 49.064 C 189.655 50.012, 189.495 50.851, 188.586 51.533 C 186.931 52.776, 188.588 55.500, 191 55.500 C 191.959 55.500, 192.414 56.311, 192.262 57.750 C 192.131 58.987, 192.388 60, 192.834 60 C 194.104 60, 199.124 51.842, 198.614 50.606 C 198.363 49.998, 198.122 50.288, 198.079 51.250 C 198.036 52.212, 197.381 53, 196.625 53 C 195.869 53, 193.731 53.257, 191.875 53.572 L 188.500 54.144 191.250 51.988 C 194.425 49.500, 194.880 47.586, 192.084 48.473 C 189.682 49.236, 188.430 47.391, 190.036 45.456 C 192.225 42.819, 188.574 43.760, 186.004 46.496 M 34.523 45.964 C 34.195 46.493, 34.860 47.860, 36 49 C 37.140 50.140, 38.507 50.805, 39.036 50.477 C 40.636 49.489, 40.122 47.136, 38.066 46.035 C 35.679 44.758, 35.273 44.749, 34.523 45.964 M 94.750 49.706 C 95.987 49.944, 98.013 49.944, 99.250 49.706 C 100.487 49.467, 99.475 49.272, 97 49.272 C 94.525 49.272, 93.513 49.467, 94.750 49.706 M 135.750 49.732 C 138.088 49.943, 141.912 49.943, 144.250 49.732 C 146.588 49.522, 144.675 49.349, 140 49.349 C 135.325 49.349, 133.412 49.522, 135.750 49.732 M 156.750 49.732 C 159.088 49.943, 162.912 49.943, 165.250 49.732 C 167.588 49.522, 165.675 49.349, 161 49.349 C 156.325 49.349, 154.412 49.522, 156.750 49.732 M 30.964 51.456 C 32.570 53.391, 31.318 55.236, 28.916 54.473 C 25.876 53.508, 26.690 55.607, 30.224 57.845 C 33.735 60.068, 35.014 59.927, 33.031 57.537 C 32.341 56.706, 32.057 55.294, 32.400 54.400 C 32.910 53.071, 33.299 53.003, 34.536 54.030 C 35.368 54.720, 36.326 55.007, 36.666 54.668 C 37.462 53.871, 32.928 50.077, 31.128 50.033 C 30.039 50.007, 30.005 50.301, 30.964 51.456 M 132.566 55.250 C 134.826 62.503, 133.744 62, 147.090 62 L 159.230 62 157.549 59.434 C 153.329 52.994, 153.344 53, 142.210 53 C 131.941 53, 131.870 53.016, 132.566 55.250 M 158.107 57.500 L 161.339 62 171.242 62 L 181.145 62 179.323 59.746 C 173.642 52.722, 174.264 53, 164.216 53 L 154.876 53 158.107 57.500 M 193 55.059 C 193 55.641, 193.450 55.840, 194 55.500 C 194.550 55.160, 195 54.684, 195 54.441 C 195 54.198, 194.550 54, 194 54 C 193.450 54, 193 54.477, 193 55.059 M 24 59.968 C 24 60.500, 25.238 61.649, 26.750 62.520 L 29.500 64.105 25.250 63.541 C 20.919 62.966, 19.885 63.830, 22.403 65.919 C 23.480 66.813, 23.942 66.783, 24.394 65.792 C 24.717 65.081, 24.751 65.449, 24.468 66.609 C 24.167 67.848, 24.609 69.261, 25.540 70.033 C 26.939 71.194, 27.047 71.034, 26.454 68.675 C 25.894 66.442, 26.114 66, 27.785 66 C 29.391 66, 31.840 63.176, 30.774 62.554 C 30.623 62.466, 29.278 61.631, 27.785 60.697 C 24.665 58.747, 24 58.619, 24 59.968 M 196.500 61 C 193.355 63.083, 193.742 63.744, 197.066 61.965 C 199.286 60.776, 199.489 61.584, 197.972 65.574 C 196.579 69.237, 197.124 69.449, 201.417 66.917 C 205.207 64.680, 205.789 62.972, 202.086 64.954 C 200.939 65.568, 200 65.939, 200 65.779 C 200 65.618, 200.419 64.027, 200.930 62.243 C 202.041 58.369, 200.940 58.060, 196.500 61 M 136.307 67.500 L 137.337 72 150.668 72 C 158.001 72, 164 71.757, 164 71.460 C 164 71.163, 163.091 69.138, 161.980 66.960 L 159.959 63 147.618 63 L 135.277 63 136.307 67.500 M 162 63.469 C 162 63.727, 162.945 65.752, 164.101 67.969 L 166.202 72 176.601 72 C 182.320 72, 187 71.759, 187 71.465 C 187 71.170, 186.273 69.820, 185.385 68.465 C 183.862 66.140, 183.193 65.988, 173.635 65.791 L 163.500 65.581 173.286 65.254 C 179.228 65.055, 182.839 64.548, 182.477 63.963 C 181.896 63.022, 162 62.542, 162 63.469 M 142.789 65.741 C 146.248 65.937, 151.648 65.936, 154.789 65.738 C 157.930 65.540, 155.100 65.380, 148.500 65.382 C 141.900 65.384, 139.330 65.546, 142.789 65.741 M 200.750 68.103 C 199.787 68.651, 199 69.752, 199 70.550 C 199 71.347, 198.550 72, 198 72 C 197.450 72, 197 72.498, 197 73.107 C 197 73.716, 197.661 73.960, 198.468 73.651 C 199.275 73.341, 200.202 73.518, 200.527 74.044 C 201.718 75.970, 204.919 74.918, 207.361 71.797 C 208.740 70.036, 209.691 68.310, 209.476 67.961 C 208.836 66.925, 202.641 67.026, 200.750 68.103 M 28.500 69 C 28.160 69.550, 28.359 70, 28.941 70 C 29.523 70, 30 69.550, 30 69 C 30 68.450, 29.802 68, 29.559 68 C 29.316 68, 28.840 68.450, 28.500 69 M 207 68.740 C 207 69.330, 206.098 69.577, 204.995 69.288 C 202.992 68.765, 200 70.463, 200 72.122 C 200 72.605, 201.055 73, 202.345 73 C 204.794 73, 208.806 69.473, 207.661 68.327 C 207.297 67.964, 207 68.150, 207 68.740 M 17.428 71.470 C 16.493 72.896, 15.903 74.174, 16.115 74.311 C 16.327 74.448, 18.181 75.323, 20.237 76.257 L 23.973 77.955 24.634 75.323 C 26.021 69.795, 20.470 66.827, 17.428 71.470 M 18.500 72 C 17.914 72.948, 18.591 73.380, 20.250 73.118 C 20.663 73.053, 21 73.450, 21 74 C 21 74.550, 21.675 75, 22.500 75 C 24.491 75, 24.428 72.378, 22.418 71.607 C 20.188 70.751, 19.211 70.849, 18.500 72 M 137.500 74 C 137.864 74.590, 143.863 75, 152.118 75 C 161.197 75, 165.901 74.648, 165.500 74 C 165.136 73.410, 159.137 73, 150.882 73 C 141.803 73, 137.099 73.352, 137.500 74 M 167 74 C 167 74.606, 171.353 75, 178.059 75 C 185.177 75, 188.898 74.644, 188.500 74 C 188.152 73.437, 183.323 73, 177.441 73 C 171.147 73, 167 73.397, 167 74 M 204.750 75.299 C 203.238 75.897, 202 76.938, 202 77.613 C 202 78.525, 203.016 78.440, 205.972 77.279 C 208.157 76.421, 209.705 75.332, 209.413 74.859 C 208.782 73.838, 208.345 73.879, 204.750 75.299 M 138.393 77.582 C 138.727 78.452, 139 80.477, 139 82.082 L 139 85 154.067 85 C 167.949 85, 169.094 84.862, 168.615 83.250 C 168.329 82.287, 167.800 80.263, 167.439 78.750 L 166.783 76 152.285 76 C 139.475 76, 137.857 76.184, 138.393 77.582 M 168 76.435 C 168 76.674, 168.525 78.137, 169.166 79.685 C 169.808 81.233, 170.370 82.950, 170.416 83.500 C 170.501 84.511, 193 85.547, 193 84.540 C 193 84.250, 192.219 82.211, 191.264 80.007 L 189.528 76 178.764 76 C 172.844 76, 168 76.196, 168 76.435 M 89 101 C 89 109.933, 89.019 110, 91.500 110 C 93.750 110, 94 109.600, 94 106 C 94 102.095, 94.083 102, 97.500 102 C 100.917 102, 101 102.095, 101 106 C 101 109.600, 101.250 110, 103.500 110 C 105.981 110, 106 109.933, 106 101 C 106 92.067, 105.981 92, 103.500 92 C 101.389 92, 101 92.467, 101 95 C 101 97.762, 100.722 98, 97.500 98 C 94.278 98, 94 97.762, 94 95 C 94 92.467, 93.611 92, 91.500 92 C 89.019 92, 89 92.067, 89 101 M 110 98.545 C 110 106.782, 112.516 110, 118.955 110 C 125.229 110, 127 107.579, 127 99 C 127 92.235, 126.918 92, 124.546 92 C 122.212 92, 122.077 92.330, 121.796 98.750 C 121.527 104.889, 121.296 105.529, 119.244 105.820 C 116.353 106.231, 115.190 103.292, 115.677 96.810 C 116.035 92.046, 116.010 92, 113.019 92 L 110 92 110 98.545 M 131.211 100.750 C 131.480 108.894, 131.652 109.522, 133.696 109.812 C 135.688 110.096, 135.919 109.636, 136.196 104.833 L 136.500 99.541 140.294 104.834 C 143.195 108.881, 144.608 110.054, 146.294 109.814 C 148.350 109.521, 148.520 108.907, 148.789 100.750 C 149.077 92.021, 149.072 92, 146.594 92 C 144.340 92, 144.081 92.440, 143.805 96.750 L 143.500 101.500 140.080 96.750 C 137.367 92.981, 136.068 92, 133.792 92 L 130.922 92 131.211 100.750 M 153 100.956 C 153 109.936, 153.018 110, 155.500 110 C 157.750 110, 158 109.600, 158 106 C 158 103.800, 158.421 102, 158.936 102 C 159.451 102, 160.884 103.800, 162.120 106 C 163.912 109.187, 164.940 110, 167.184 110 C 170.597 110, 170.670 109.288, 167.706 104.898 L 165.411 101.500 167.436 99.855 C 169.130 98.477, 169.297 97.745, 168.459 95.355 C 167.498 92.613, 167.173 92.488, 160.229 92.206 L 153 91.912 153 100.956 M 172.211 100.750 L 172.500 109.500 179.986 109.500 C 186.321 109.500, 187.524 109.231, 187.810 107.750 C 188.095 106.269, 187.367 106, 183.073 106 C 178.667 106, 178 105.737, 178 104 C 178 102.292, 178.667 102, 182.573 102 C 186.389 102, 187.092 101.710, 186.815 100.250 C 186.573 98.973, 185.335 98.417, 182.241 98.193 C 179.355 97.983, 178 97.424, 178 96.443 C 178 95.400, 179.246 95, 182.500 95 C 185.833 95, 187 94.611, 187 93.500 C 187 92.299, 185.496 92, 179.461 92 L 171.922 92 172.211 100.750 M 13.032 94.250 C 13.012 95.365, 12.219 96, 10.845 96 C 8.879 96, 8.823 96.153, 10.215 97.750 C 11.053 98.713, 11.560 99.987, 11.342 100.583 C 11.111 101.211, 12.228 101.667, 14 101.667 C 15.772 101.667, 16.889 101.211, 16.658 100.583 C 16.440 99.987, 16.947 98.713, 17.785 97.750 C 19.164 96.167, 19.139 96, 17.515 96 C 16.528 96, 15.123 95.213, 14.392 94.250 C 13.127 92.583, 13.062 92.583, 13.032 94.250 M 210.752 94.250 C 210.373 95.213, 209.036 96.014, 207.781 96.032 C 205.616 96.062, 205.594 96.134, 207.341 97.458 C 208.614 98.423, 208.972 99.511, 208.503 100.990 C 207.890 102.922, 208.017 103.006, 209.831 101.873 C 211.394 100.897, 212.157 100.885, 213.282 101.819 C 214.489 102.821, 214.647 102.606, 214.246 100.509 C 213.966 99.042, 214.231 98, 214.883 98 C 215.498 98, 216 97.550, 216 97 C 216 96.450, 215.133 96, 214.073 96 C 213.014 96, 211.988 95.213, 211.794 94.250 C 211.458 92.583, 211.408 92.583, 210.752 94.250 M 158 97 C 158 98.467, 158.667 99, 160.500 99 C 162.333 99, 163 98.467, 163 97 C 163 95.533, 162.333 95, 160.500 95 C 158.667 95, 158 95.533, 158 97 M 0.343 112.500 C 0.346 116.900, 0.522 118.576, 0.733 116.224 C 0.945 113.872, 0.942 110.272, 0.727 108.224 C 0.512 106.176, 0.339 108.100, 0.343 112.500 M 8 108 C 8 108.550, 8.900 109, 10 109 C 11.348 109, 12 109.667, 12 111.044 C 12 112.389, 11.441 112.987, 10.364 112.794 C 8.340 112.431, 7.656 115.654, 9.599 116.399 C 11.337 117.067, 11.439 119.676, 9.750 120.280 C 9.063 120.525, 8.782 121.032, 9.126 121.406 C 9.822 122.161, 17 119.019, 17 117.959 C 17 117.591, 15.537 116.820, 13.750 116.247 C 10.593 115.234, 10.577 115.201, 13.191 115.102 C 16.513 114.976, 17.687 113.413, 14.989 112.707 C 12.418 112.035, 12.425 109.963, 15 109.290 C 18.584 108.353, 17.107 107, 12.500 107 C 10.025 107, 8 107.450, 8 108 M 208.290 110.461 C 208.465 113.753, 208.911 114.517, 210.937 114.991 L 213.374 115.561 210.799 117.530 C 209.219 118.739, 207.975 120.925, 207.578 123.188 C 206.936 126.855, 206.953 126.877, 210.716 127.270 L 214.500 127.664 210.595 127.832 C 206.756 127.997, 206.721 128.034, 208.500 130 C 210.353 132.047, 212.613 132.801, 211.500 131 C 211.160 130.450, 211.788 130, 212.896 130 C 214.410 130, 215.074 129.121, 215.575 126.453 C 215.941 124.503, 215.961 122.628, 215.620 122.287 C 215.279 121.946, 215 122.417, 215 123.333 C 215 125.548, 212.272 125.479, 211.689 123.250 C 211.254 121.583, 211.226 121.583, 211.116 123.250 C 210.954 125.687, 209 125.456, 209 123 C 209 121.334, 209.711 120.978, 213.250 120.868 C 217.391 120.740, 217.414 120.721, 214.153 120.118 L 210.806 119.500 213.931 117.200 C 217.512 114.563, 217.166 113, 213 113 C 211.415 113, 209.840 112.550, 209.500 112 C 209.127 111.396, 210.490 111, 212.941 111 C 215.173 111, 217 110.550, 217 110 C 217 109.450, 215.238 109, 213.083 109 C 210.907 109, 208.925 108.445, 208.623 107.750 C 208.324 107.063, 208.174 108.282, 208.290 110.461 M 141 120 C 141 120.625, 147 121, 157 121 C 167 121, 173 120.625, 173 120 C 173 119.375, 167 119, 157 119 C 147 119, 141 119.375, 141 120 M 174 120 C 174 120.609, 178.500 121, 185.500 121 C 192.500 121, 197 120.609, 197 120 C 197 119.391, 192.500 119, 185.500 119 C 178.500 119, 174 119.391, 174 120 M 11 123 C 8.519 123.795, 8.522 123.801, 11.424 123.900 L 14.349 124 12.237 126.250 C 9.620 129.037, 9.775 135.735, 12.492 137.255 C 13.888 138.037, 13.970 138.401, 12.899 139.062 C 10.568 140.503, 12.470 140.985, 16.306 139.926 C 19.543 139.032, 21.510 137, 19.139 137 C 18.665 137, 18.482 135.928, 18.733 134.617 C 18.983 133.307, 18.716 131.942, 18.138 131.585 C 17.560 131.228, 17.350 130.253, 17.670 129.417 C 18.141 128.191, 17.713 128.034, 15.450 128.602 L 12.646 129.306 14.823 126.248 C 16.020 124.567, 17 122.923, 17 122.596 C 17 121.808, 14.113 122.003, 11 123 M 140.926 124.250 C 140.885 125.487, 140.661 127.524, 140.428 128.775 L 140.005 131.051 155.658 130.775 C 170.278 130.518, 171.330 130.372, 171.595 128.559 C 171.751 127.491, 172.140 125.579, 172.459 124.309 L 173.038 122 157.019 122 C 141.095 122, 141 122.013, 140.926 124.250 M 173.886 123.750 C 173.823 124.713, 173.625 126.737, 173.446 128.250 L 173.120 131 184.435 131 L 195.750 131 196.375 127.875 C 197.590 121.800, 197.960 122, 185.500 122 C 175.258 122, 173.988 122.191, 173.886 123.750 M 12.010 133.488 C 11.012 134.690, 11.073 135.091, 12.329 135.573 C 14.794 136.519, 17.447 135.631, 17.812 133.739 C 18.240 131.516, 13.806 131.324, 12.010 133.488 M 140 134.918 C 140 136.523, 139.727 138.548, 139.393 139.418 C 138.856 140.817, 140.519 141, 153.785 141 L 168.783 141 169.439 138.250 C 169.800 136.738, 170.329 134.713, 170.615 133.750 C 171.094 132.136, 169.925 132, 155.567 132 L 140 132 140 134.918 M 171.411 136.500 L 170.367 141 181.575 141 L 192.783 141 193.547 138.250 C 195.402 131.573, 196.074 132, 183.721 132 L 172.455 132 171.411 136.500 M 209.250 133.316 C 207.463 133.851, 206 134.609, 206 135 C 206 135.391, 207.463 136.200, 209.250 136.799 L 212.500 137.886 208.500 137.425 C 205.001 137.021, 204.808 137.097, 206.957 138.026 L 209.414 139.089 206.624 140.918 C 205.090 141.925, 203.819 143.142, 203.799 143.624 C 203.779 144.106, 203.175 145.339, 202.457 146.365 C 201.739 147.390, 201.390 148.853, 201.682 149.615 C 201.975 150.377, 201.788 151, 201.268 151 C 200.747 151, 199.838 152.060, 199.247 153.356 C 198.277 155.485, 198.506 155.871, 201.621 157.356 C 205.832 159.365, 206.365 159.394, 205.670 157.583 C 205.371 156.803, 205.773 155.917, 206.563 155.614 C 208.724 154.785, 208.307 152.768, 206.118 153.462 C 205.027 153.809, 204.030 153.521, 203.745 152.778 C 203.409 151.904, 204.247 151.496, 206.377 151.498 C 209.249 151.500, 209.489 151.244, 209.361 148.324 C 209.249 145.783, 209.549 145.262, 210.861 145.721 C 211.984 146.114, 212.185 145.964, 211.500 145.244 C 210.950 144.667, 209.600 144.015, 208.500 143.797 C 206.764 143.452, 206.913 143.180, 209.629 141.737 C 213.684 139.582, 214.742 137.007, 211.880 136.258 C 209.893 135.739, 209.940 135.625, 212.592 134.541 C 216.387 132.990, 213.667 131.993, 209.250 133.316 M 17.228 143.039 C 13.870 144.388, 13.271 146.991, 15.839 149.071 C 17.381 150.319, 17.647 151.001, 16.756 151.421 C 16.065 151.746, 16.748 151.773, 18.274 151.481 L 21.048 150.950 19.575 154.475 C 17.940 158.387, 18.608 158.771, 23.050 156.474 C 26.614 154.631, 26.941 153.692, 23.573 154.972 L 21.146 155.895 22.641 152.316 C 24.465 147.950, 23.417 146.511, 19.500 148 C 17.715 148.679, 16.324 148.724, 15.724 148.124 C 14.310 146.710, 15.644 145.237, 19.011 144.497 C 20.655 144.136, 22 143.427, 22 142.921 C 22 141.789, 20.232 141.833, 17.228 143.039 M 139 143 C 139 143.621, 144.500 144, 153.500 144 C 162.500 144, 168 143.621, 168 143 C 168 142.379, 162.500 142, 153.500 142 C 144.500 142, 139 142.379, 139 143 M 170 143 C 170 143.606, 174.333 144, 181 144 C 187.667 144, 192 143.606, 192 143 C 192 142.394, 187.667 142, 181 142 C 174.333 142, 170 142.394, 170 143 M 138.555 146.250 C 138.345 146.938, 137.918 148.975, 137.606 150.778 L 137.039 154.056 150.522 153.778 C 158.558 153.612, 164.052 153.096, 164.121 152.500 C 164.185 151.950, 164.859 150.612, 165.618 149.527 C 168.589 145.286, 167.790 145, 152.969 145 C 142.614 145, 138.837 145.328, 138.555 146.250 M 168.109 147.250 C 165.378 154.551, 164.703 154, 176.374 154 C 190.236 154, 191.381 152.175, 177.787 151.746 L 167.500 151.422 178.089 151.211 C 188.377 151.006, 188.712 150.927, 189.839 148.453 C 190.478 147.052, 191 145.702, 191 145.453 C 191 145.204, 186.039 145, 179.975 145 C 169.458 145, 168.912 145.104, 168.109 147.250 M 203 147.465 C 203 149.518, 206.903 151.497, 208.265 150.135 C 208.999 149.401, 208.929 148.620, 208.035 147.542 C 206.410 145.585, 203 145.532, 203 147.465 M 144.750 151.740 C 148.188 151.936, 153.813 151.936, 157.250 151.740 C 160.688 151.545, 157.875 151.385, 151 151.385 C 144.125 151.385, 141.313 151.545, 144.750 151.740 M 200 154 C 200 154.550, 200.702 155, 201.559 155 C 202.416 155, 202.840 154.550, 202.500 154 C 202.160 153.450, 201.459 153, 200.941 153 C 200.423 153, 200 153.450, 200 154 M 136.918 155.250 C 136.873 155.387, 136.629 156.763, 136.376 158.308 C 135.941 160.965, 136.039 161.049, 138.208 159.880 C 139.469 159.200, 142.975 157.848, 146 156.876 L 151.500 155.108 144.250 155.054 C 140.262 155.024, 136.963 155.113, 136.918 155.250 M 183.813 155.683 C 184.534 155.972, 185.397 155.936, 185.729 155.604 C 186.061 155.272, 185.471 155.036, 184.417 155.079 C 183.252 155.127, 183.015 155.364, 183.813 155.683 M 23.250 157.776 C 21.462 158.649, 20 159.731, 20 160.181 C 20 161.340, 20.684 161.215, 24.160 159.417 C 27.515 157.683, 27.376 158.641, 23.677 162.750 C 21.535 165.130, 21.739 165.297, 26.500 165.067 L 29.500 164.921 27.140 166.798 C 25.033 168.473, 24.925 168.907, 26.130 170.837 C 26.873 172.027, 27.823 173, 28.241 173 C 28.658 173, 29 173.730, 29 174.622 C 29 176.020, 29.234 176.055, 30.687 174.872 C 32.170 173.666, 32.292 173.719, 31.699 175.302 C 30.904 177.420, 33.583 182, 35.615 182 C 36.377 182, 36.947 182.338, 36.882 182.750 C 36.508 185.114, 37.312 185.075, 39.890 182.605 C 43.470 179.176, 45.326 180.960, 41.934 184.570 C 39.031 187.660, 40.242 189.060, 43.318 186.171 C 44.589 184.977, 45.937 184, 46.314 184 C 47.466 184, 47.077 188.523, 45.817 189.783 C 43.792 191.808, 45.444 192.017, 49.271 190.220 C 53.310 188.324, 54.233 186.865, 50.831 187.754 C 49.174 188.188, 48.801 187.962, 49.249 186.795 C 49.628 185.805, 47.956 183.413, 44.497 179.997 C 38.692 174.264, 36.024 173.865, 35.968 178.719 C 35.938 181.380, 35.873 181.416, 34.468 179.559 C 32.438 176.874, 32.613 176.097, 35.500 175 C 36.875 174.477, 38 173.814, 38 173.527 C 38 173.240, 36.427 170.816, 34.505 168.140 C 31.591 164.084, 30.594 163.355, 28.505 163.754 C 25.656 164.299, 25.325 163.403, 27.492 161.009 C 28.696 159.678, 28.744 159.054, 27.742 157.774 C 26.608 156.327, 26.217 156.327, 23.250 157.776 M 196.711 158.250 C 196.460 158.938, 197.210 160.565, 198.377 161.867 L 200.500 164.233 197.345 163.558 C 195.416 163.145, 193.926 163.311, 193.509 163.985 C 192.758 165.201, 194.665 168, 196.245 168 C 196.874 168, 196.846 167.520, 196.171 166.707 C 195.320 165.681, 195.813 165.496, 198.549 165.816 C 201.832 166.199, 203.233 164.880, 201.005 163.503 C 200.458 163.165, 199.528 161.986, 198.938 160.884 C 197.898 158.940, 197.957 158.926, 200.883 160.439 C 204.406 162.261, 205 162.346, 205 161.026 C 205 160.021, 199.848 157, 198.133 157 C 197.602 157, 196.961 157.563, 196.711 158.250 M 46.750 164.716 C 45.237 164.945, 44 165.572, 44 166.109 C 44 167.750, 53.035 176.857, 59.444 181.675 C 71.970 191.092, 92.774 199, 105.023 199 L 109.789 199 109.014 195.562 C 105.883 181.679, 91.998 169.804, 73.912 165.541 C 68.006 164.149, 53.419 163.706, 46.750 164.716 M 149.202 166.022 C 131.355 170.698, 118.060 182.450, 115.363 195.934 L 114.686 199.320 122.217 198.683 C 135.940 197.523, 151.821 191.408, 163.500 182.786 C 169.315 178.494, 181 167.225, 181 165.910 C 181 163.417, 158.847 163.495, 149.202 166.022 M 30.758 166.576 C 30.380 166.954, 30.570 168.216, 31.181 169.381 C 32.266 171.452, 32.244 171.459, 30.245 169.685 C 27.678 167.408, 25.954 169.383, 28.386 171.814 C 29.882 173.311, 30.164 173.281, 32.017 171.427 C 33.716 169.729, 33.827 169.145, 32.736 167.653 C 32.026 166.682, 31.136 166.198, 30.758 166.576 M 193.557 168.995 C 191.104 169.463, 188.692 170.820, 187.175 172.583 L 184.737 175.417 188.008 178.148 L 191.278 180.878 193.053 178.689 C 194.029 177.485, 194.580 176.275, 194.277 176 C 193.974 175.725, 193.525 176.063, 193.280 176.750 C 193.034 177.438, 192.166 178, 191.349 178 C 190.267 178, 190.058 177.393, 190.577 175.758 C 191.181 173.854, 191.064 173.702, 189.802 174.749 C 187.822 176.393, 186.829 175.247, 188.255 172.964 C 189.346 171.216, 189.506 171.224, 192.254 173.181 C 193.827 174.301, 195.353 174.981, 195.643 174.690 C 195.934 174.400, 195.120 173.570, 193.836 172.847 C 191.547 171.558, 191.577 171.521, 195.283 171.016 C 197.364 170.732, 199.085 170.061, 199.108 169.525 C 199.165 168.205, 198.186 168.111, 193.557 168.995 M 34.667 171.667 C 34.300 172.033, 34 172.798, 34 173.367 C 34 173.993, 34.466 173.934, 35.183 173.217 C 35.834 172.566, 36.134 171.801, 35.850 171.517 C 35.566 171.232, 35.033 171.300, 34.667 171.667 M 38.220 179.017 C 38.300 181.859, 38.409 181.939, 40.109 180.402 C 41.645 179.011, 41.707 178.564, 40.528 177.385 C 38.514 175.371, 38.124 175.647, 38.220 179.017 M 179.807 180.750 C 177.314 183.653, 176.909 184.826, 178.138 185.585 C 178.932 186.076, 179.046 185.857, 178.493 184.905 C 178.045 184.132, 178.875 184.591, 180.339 185.924 C 181.802 187.258, 183 188.565, 183 188.829 C 183 189.094, 182.100 188.495, 181 187.500 C 179.673 186.299, 179 186.116, 179 186.956 C 179 187.862, 178.003 188.036, 175.500 187.566 C 173.575 187.205, 172 187.198, 172 187.550 C 172 188.849, 176.171 194, 177.223 194 C 177.821 194, 177.495 193.100, 176.500 192 C 174.719 190.032, 174.753 190, 178.671 190 C 183.090 190, 187 186.895, 187 183.386 C 187 179.210, 182.535 177.574, 179.807 180.750 M 180 181.826 C 180 182.280, 181.067 183.654, 182.372 184.880 C 184.496 186.875, 184.812 186.932, 185.389 185.427 C 185.744 184.503, 185.522 183.129, 184.895 182.373 C 183.661 180.887, 180 180.478, 180 181.826 M 168.385 191.750 C 168.671 192.713, 169.222 194.824, 169.609 196.442 C 170.291 199.291, 170.340 199.313, 171.150 197.123 C 171.774 195.436, 172.497 195.023, 173.993 195.498 C 177.179 196.509, 176.324 194.363, 172.632 192.082 C 168.526 189.544, 167.711 189.480, 168.385 191.750 M 51.832 193.470 C 50.396 196.622, 52.352 199.357, 55.598 198.737 C 57.153 198.439, 57.663 198.715, 57.302 199.656 C 56.401 202.003, 58.702 201.103, 60.459 198.422 C 61.546 196.763, 62.708 196.058, 63.716 196.444 C 65.037 196.951, 65.078 196.799, 63.981 195.477 C 63.265 194.615, 62.157 194.110, 61.518 194.355 C 60.879 194.600, 59.822 193.945, 59.170 192.900 C 57.432 190.117, 53.210 190.445, 51.832 193.470 M 54.200 193.200 C 52.600 194.800, 52.667 198, 54.300 198 C 56.155 198, 58 195.906, 58 193.800 C 58 191.744, 55.976 191.424, 54.200 193.200 M 161.380 195.452 C 160.605 197.473, 161.758 199, 164.059 199 C 166.476 199, 166.626 200.729, 164.250 201.200 C 163.150 201.418, 162.909 201.805, 163.603 202.241 C 164.209 202.623, 165.471 202.376, 166.407 201.692 C 168.728 199.995, 167.442 197, 164.393 197 C 161.864 197, 161.138 195.515, 163.250 194.662 C 164.229 194.267, 164.222 194.141, 163.219 194.079 C 162.514 194.036, 161.686 194.653, 161.380 195.452 M 155.778 197.901 C 153.730 198.857, 151.219 200.397, 150.197 201.322 C 149.174 202.247, 148.110 202.776, 147.831 202.498 C 147.552 202.219, 145.936 202.475, 144.239 203.067 C 141.336 204.079, 141.215 204.319, 142.201 207.147 C 142.924 209.222, 142.928 210.472, 142.211 211.189 C 140.715 212.685, 139.252 211.425, 138.497 207.989 C 138.136 206.345, 137.379 205, 136.814 205 C 136.248 205, 136.085 205.786, 136.452 206.750 C 136.986 208.153, 136.869 208.252, 135.859 207.250 C 133.847 205.253, 131.049 205.799, 129.854 208.421 C 128.801 210.732, 126 210.998, 126 208.786 C 126 208.236, 126.675 208.045, 127.500 208.362 C 128.325 208.678, 129 208.468, 129 207.895 C 129 205.900, 125.498 207.536, 125.192 209.674 C 124.983 211.134, 125.547 212.039, 126.942 212.481 C 130.300 213.547, 129.292 214.760, 125 214.819 C 120.763 214.878, 119.852 213.768, 122.750 212.080 C 124.417 211.109, 124.417 211.059, 122.750 211.030 C 121.787 211.014, 121 210.583, 121 210.073 C 121 209.564, 121.787 208.941, 122.750 208.689 C 123.827 208.408, 123.442 208.187, 121.750 208.116 C 119.183 208.008, 119 208.270, 119 212.059 C 119 214.500, 118.603 215.873, 118.004 215.502 C 117.456 215.164, 117.119 213.450, 117.254 211.693 C 117.470 208.888, 117.196 208.500, 115 208.500 C 112.774 208.500, 112.466 208.965, 112.193 212.750 C 112.011 215.265, 112.317 217, 112.943 217 C 113.524 217, 114.014 216.213, 114.032 215.250 C 114.062 213.600, 114.141 213.602, 115.417 215.284 C 116.451 216.647, 117.566 216.918, 120.135 216.432 C 121.986 216.082, 124.730 215.811, 126.233 215.830 C 127.736 215.850, 129.226 215.444, 129.544 214.929 C 129.862 214.414, 131.190 214.261, 132.495 214.588 C 134.208 215.018, 135.214 214.630, 136.111 213.194 C 137.083 211.638, 137.722 211.434, 139.044 212.260 C 139.974 212.841, 141.519 213.015, 142.477 212.647 C 143.855 212.118, 144.103 211.198, 143.666 208.239 L 143.114 204.500 144.201 207.750 C 145.346 211.171, 147 212.132, 147 209.378 C 147 208.037, 147.265 207.975, 148.524 209.020 C 149.362 209.716, 150.342 209.991, 150.701 209.632 C 151.060 209.273, 150.487 208.323, 149.427 207.521 C 148.367 206.720, 148.036 206.049, 148.691 206.032 C 149.346 206.014, 150.160 206.450, 150.500 207 C 151.298 208.291, 155.697 208.299, 156.493 207.011 C 156.844 206.443, 156.439 206.278, 155.539 206.623 C 154.679 206.954, 153.305 206.668, 152.487 205.989 C 150.953 204.716, 150.421 201.059, 151.750 200.923 C 152.162 200.881, 153.252 200.701, 154.170 200.524 C 155.238 200.317, 156.274 201.247, 157.042 203.100 C 158.423 206.434, 158.897 206.576, 161.559 204.448 C 163.445 202.940, 163.437 202.914, 161.250 203.516 C 159.610 203.967, 159 203.710, 159 202.567 C 159 201.705, 159.450 201, 160 201 C 160.550 201, 161 200.495, 161 199.878 C 161 199.052, 160.645 199.050, 159.658 199.869 C 158.920 200.481, 158.020 200.687, 157.658 200.325 C 156.515 199.182, 156.943 198, 158.500 198 C 159.325 198, 160 197.550, 160 197 C 160 196.450, 159.887 196.036, 159.750 196.081 C 159.613 196.125, 157.825 196.944, 155.778 197.901 M 65.543 199.918 C 63.668 203.543, 63.531 206.474, 65.393 203.115 C 66.804 200.570, 67.353 200.945, 68.353 205.141 C 68.911 207.478, 69.373 207.730, 72.358 207.328 C 75.197 206.945, 75.861 207.240, 76.534 209.186 C 77.208 211.137, 77.396 210.816, 77.729 207.146 C 77.947 204.751, 77.867 202.534, 77.552 202.219 C 77.237 201.904, 75.634 202.935, 73.990 204.510 C 70.622 207.737, 70.304 207.338, 72.549 202.700 L 74.099 199.500 72.131 201.760 L 70.163 204.020 69.505 201.021 C 68.578 196.800, 67.334 196.454, 65.543 199.918 M 61.500 199 C 61.840 199.550, 62.316 200, 62.559 200 C 62.802 200, 63 199.550, 63 199 C 63 198.450, 62.523 198, 61.941 198 C 61.359 198, 61.160 198.450, 61.500 199 M 80.294 207.539 C 80.070 212.479, 81.454 212.761, 82.503 207.989 C 83.432 203.755, 85.399 204.157, 84.704 208.438 C 84.002 212.765, 86.103 215.042, 89.081 213.181 C 90.655 212.199, 91 212.255, 91 213.492 C 91 215.615, 92.985 215.383, 93.068 213.250 C 93.122 211.857, 93.357 211.959, 94.220 213.750 C 95.461 216.323, 96.241 216.491, 98.989 214.775 C 100.638 213.745, 101.204 213.864, 102.543 215.525 C 104.043 217.384, 104.101 217.238, 103.522 213.038 C 102.827 207.983, 102.576 207.526, 101.026 208.484 C 100.417 208.860, 100.191 210.143, 100.525 211.334 C 100.957 212.879, 100.859 213.107, 100.182 212.130 C 99.409 211.013, 99.041 211.104, 98.192 212.622 C 97.619 213.646, 96.796 214.129, 96.363 213.696 C 95.930 213.263, 96.158 211.976, 96.870 210.837 C 98.380 208.419, 97.561 207.310, 93.761 206.628 C 91.361 206.197, 90.920 206.530, 90.197 209.318 C 89.013 213.889, 86.420 213.540, 86.780 208.858 C 87.033 205.565, 86.755 205.110, 83.881 204.108 C 82.132 203.499, 80.656 203.003, 80.601 203.007 C 80.545 203.011, 80.407 205.050, 80.294 207.539 M 74.500 205 C 74.160 205.550, 74.359 206, 74.941 206 C 75.523 206, 76 205.550, 76 205 C 76 204.450, 75.802 204, 75.559 204 C 75.316 204, 74.840 204.450, 74.500 205 M 145.500 205 C 145.840 205.550, 146.316 206, 146.559 206 C 146.802 206, 147 205.550, 147 205 C 147 204.450, 146.523 204, 145.941 204 C 145.359 204, 145.160 204.450, 145.500 205 M 131.424 208.339 C 130.751 210.092, 132.597 214, 134.099 214 C 135.551 214, 134.766 207.741, 133.251 207.244 C 132.563 207.018, 131.741 207.511, 131.424 208.339 M 94 209.559 C 94 210.416, 94.450 210.840, 95 210.500 C 95.550 210.160, 96 209.459, 96 208.941 C 96 208.423, 95.550 208, 95 208 C 94.450 208, 94 208.702, 94 209.559 M 105.667 208.667 C 105.300 209.033, 105 211.058, 105 213.167 C 105 216.710, 105.208 216.991, 107.750 216.884 C 109.568 216.807, 109.884 216.609, 108.681 216.297 C 107.296 215.939, 106.931 215.025, 107.151 212.467 C 107.448 209.022, 106.848 207.485, 105.667 208.667 M 114 210.441 C 114 211.298, 114.450 212, 115 212 C 115.550 212, 116 211.577, 116 211.059 C 116 210.541, 115.550 209.840, 115 209.500 C 114.450 209.160, 114 209.584, 114 210.441" stroke="none" fill="#07903c" fill-rule="evenodd"/><path d="M 0.126 52.750 C 0.212 88.274, 0.541 103.258, 1.135 98.635 C 7.650 47.902, 47.902 7.650, 98.635 1.135 C 103.258 0.541, 88.274 0.212, 52.750 0.126 L 0 0 0.126 52.750 M 126.365 1.135 C 151.457 4.357, 173.487 15.241, 191.623 33.377 C 209.686 51.440, 220.656 73.644, 223.865 98.635 C 224.459 103.258, 224.788 88.274, 224.874 52.750 L 225 0 172.250 0.126 C 136.726 0.212, 121.742 0.541, 126.365 1.135 M 91.622 3.555 C 68.895 8.070, 51.328 17.560, 34.444 34.444 C 12.289 56.600, 2 81.353, 2 112.500 C 2 143.647, 12.289 168.400, 34.444 190.556 C 51.606 207.717, 69.063 217.047, 92.348 221.502 C 103.402 223.617, 123.291 223.432, 134.500 221.109 C 176.228 212.461, 208.438 181.731, 220.216 139.330 C 222.098 132.554, 222.391 128.943, 222.391 112.500 C 222.391 96.057, 222.098 92.446, 220.216 85.670 C 214.379 64.657, 204.149 47.190, 189.362 32.989 C 172.690 16.978, 154.984 7.771, 132.652 3.498 C 122.960 1.643, 101.089 1.674, 91.622 3.555 M 94.919 3.948 C 50.810 12.011, 17.255 43.123, 5.883 86.500 C 3.850 94.258, 3.524 97.847, 3.524 112.500 C 3.524 127.153, 3.850 130.742, 5.883 138.500 C 16.307 178.261, 45.280 207.780, 84.630 218.730 C 93.715 221.258, 95.931 221.477, 112.500 221.477 C 129.069 221.477, 131.285 221.258, 140.370 218.730 C 179.720 207.780, 208.693 178.261, 219.117 138.500 C 221.150 130.742, 221.476 127.153, 221.476 112.500 C 221.476 97.847, 221.150 94.258, 219.117 86.500 C 208.750 46.954, 179.701 17.218, 140.893 6.426 C 132.982 4.226, 128.976 3.758, 115.500 3.462 C 106.700 3.269, 97.439 3.488, 94.919 3.948 M 117.500 8 C 117.840 8.550, 118.568 9, 119.118 9 C 119.668 9, 119.840 8.550, 119.500 8 C 119.160 7.450, 118.432 7, 117.882 7 C 117.332 7, 117.160 7.450, 117.500 8 M 92.316 9.899 C 92.014 11.055, 91.144 12, 90.383 12 C 89.623 12, 89 12.970, 89 14.155 C 89 16.249, 88.943 16.258, 86.994 14.494 C 84.011 11.795, 83.609 13.253, 86.211 17.330 C 88.850 21.463, 90.159 21.969, 89.882 18.750 C 89.776 17.512, 89.766 15.600, 89.860 14.500 C 90.002 12.830, 90.190 12.747, 91 14 C 91.533 14.825, 91.976 16.565, 91.985 17.867 C 91.997 19.830, 92.383 20.131, 94.250 19.630 C 95.487 19.299, 97.225 19.021, 98.111 19.014 C 99.313 19.003, 99.594 18.327, 99.216 16.351 C 98.678 13.533, 99.555 13.633, 103.256 16.813 C 105.683 18.897, 106.188 17.970, 105.116 13.401 C 104.292 9.888, 104.191 9.791, 104.100 12.424 L 104 15.349 101.686 13.174 C 100.247 11.823, 98.070 10.994, 95.936 10.985 C 93.629 10.974, 92.946 10.687, 93.857 10.110 C 94.864 9.472, 94.911 9.063, 94.039 8.524 C 93.321 8.080, 92.652 8.613, 92.316 9.899 M 109.824 13.990 C 110.746 16.184, 111.769 17.984, 112.098 17.990 C 112.427 17.995, 113.404 16.200, 114.268 14 C 115.132 11.800, 115.474 10, 115.028 10 C 114.582 10, 113.888 11.238, 113.485 12.750 L 112.753 15.500 111.793 12.750 C 111.265 11.238, 110.229 10, 109.491 10 C 108.423 10, 108.492 10.817, 109.824 13.990 M 117.526 12.950 C 115.816 16.256, 115.380 19.523, 116.985 17 C 117.791 15.733, 118.270 15.705, 120.067 16.819 C 122.887 18.568, 123.149 18.096, 121.800 13.699 C 120.428 9.229, 119.531 9.072, 117.526 12.950 M 139.563 10.898 C 139.246 11.410, 139.553 12.057, 140.244 12.336 C 140.935 12.614, 140.543 12.878, 139.372 12.921 C 136.588 13.024, 134.765 15.314, 135.173 18.195 C 135.438 20.064, 136.114 20.498, 138.750 20.490 C 140.937 20.484, 142 20.958, 142 21.940 C 142 24.095, 143.542 22.053, 144.831 18.193 C 145.855 15.127, 145.792 14.931, 143.968 15.510 C 142.068 16.113, 141.541 15.298, 141.908 12.325 C 142.098 10.790, 140.304 9.698, 139.563 10.898 M 125.975 13.565 C 124.587 17.217, 124.814 20.204, 126.237 17 C 127.344 14.506, 127.348 14.505, 127.743 16.750 C 128.169 19.171, 129.580 19.761, 130.236 17.792 C 130.631 16.607, 128.291 11, 127.402 11 C 127.154 11, 126.512 12.154, 125.975 13.565 M 93 13 C 93 13.550, 94.013 14.014, 95.250 14.030 C 97.259 14.058, 97.313 14.170, 95.750 15.080 C 93.400 16.449, 93.533 18, 96 18 C 97.556 18, 98 17.333, 98 15 C 98 12.467, 97.611 12, 95.500 12 C 94.125 12, 93 12.450, 93 13 M 132.211 13.250 C 131.044 14.661, 131.760 20, 133.117 20 C 133.602 20, 134 18.912, 134 17.582 C 134 16.252, 134.273 14.452, 134.607 13.582 C 135.329 11.700, 133.681 11.472, 132.211 13.250 M 118.500 14 C 118.160 14.550, 118.359 15, 118.941 15 C 119.523 15, 120 14.550, 120 14 C 120 13.450, 119.802 13, 119.559 13 C 119.316 13, 118.840 13.450, 118.500 14 M 82.670 16.500 C 83.582 21.167, 83.577 21.222, 82.201 21.725 C 81.431 22.006, 80.424 20.936, 79.732 19.100 C 79.088 17.395, 78.210 16, 77.781 16 C 76.781 16, 76.789 16.097, 78.098 19.851 C 79.275 23.229, 81.910 24.019, 83.920 21.597 C 84.815 20.518, 84.737 19.419, 83.584 16.847 L 82.083 13.500 82.670 16.500 M 136.989 16.021 C 135.777 18.286, 136.424 20, 138.492 20 C 140.051 20, 141.449 16.536, 140.506 15.009 C 139.528 13.427, 138.168 13.818, 136.989 16.021 M 149 17.025 C 149 17.561, 149.439 18, 149.975 18 C 150.609 18, 150.609 18.898, 149.975 20.565 C 148.756 23.771, 148.741 25, 149.921 25 C 150.427 25, 151.138 23.650, 151.500 22 C 151.862 20.350, 152.798 19, 153.579 19 C 155.362 19, 155.354 19.415, 153.504 22.993 C 151.878 26.137, 153.177 28.244, 154.908 25.271 C 155.848 23.656, 155.942 23.688, 155.970 25.635 C 156.012 28.647, 160.754 31.635, 163.133 30.149 C 164.548 29.265, 164.816 29.315, 164.405 30.386 C 163.612 32.453, 166.866 35.177, 169.231 34.427 C 170.753 33.944, 171.054 34.120, 170.453 35.143 C 170.015 35.889, 170.634 35.643, 171.828 34.595 L 174 32.690 174 36.345 C 174 40.785, 175.169 40.976, 178 37 C 179.175 35.350, 179.704 34, 179.175 34 C 178.646 34, 177.878 34.788, 177.467 35.750 C 176.874 37.138, 176.532 36.777, 175.812 34 C 175.312 32.075, 174.850 29.918, 174.785 29.207 C 174.720 28.496, 174.067 28.144, 173.333 28.426 C 172.444 28.767, 172 28.115, 172 26.469 C 172 25.111, 171.544 24, 170.986 24 C 170.400 24, 170.203 25.314, 170.519 27.108 C 171.095 30.378, 169.697 33, 167.378 33 C 165.291 33, 165.727 30.332, 168.189 28.039 C 169.397 26.913, 169.819 26, 169.130 26 C 168.443 26, 168.160 25.550, 168.500 25 C 168.840 24.450, 168.428 24, 167.585 24 C 166.741 24, 165.353 25.350, 164.500 27 C 163.647 28.650, 162.537 30, 162.033 30 C 160.156 30, 159.968 27.963, 161.560 24.884 C 163.051 22.002, 163.054 21.765, 161.601 22.323 C 160.720 22.661, 160 22.513, 160 21.994 C 160 21.041, 156.102 18.750, 151.507 17.003 C 149.893 16.389, 149 16.397, 149 17.025 M 71.046 18.445 C 69.469 20.345, 70.070 24.026, 72.172 25.344 C 74.480 26.790, 79.188 24.654, 78.373 22.530 C 77.557 20.402, 76.333 20.620, 75.709 23.004 C 74.979 25.797, 72 24.477, 72 21.361 C 72 19.780, 72.784 18.621, 74.250 18.031 C 76.459 17.143, 76.461 17.126, 74.372 17.063 C 73.202 17.029, 71.705 17.650, 71.046 18.445 M 67.042 21.050 C 67.019 21.902, 67.563 23.206, 68.250 23.947 C 69.278 25.055, 69.145 25.157, 67.500 24.519 C 63.964 23.147, 61 22.743, 61.007 23.633 C 61.010 24.110, 61.907 25.850, 63 27.500 C 65.071 30.627, 65.748 30.265, 63.986 26.974 C 63.015 25.159, 63.143 25.139, 66.986 26.495 C 69.194 27.274, 70.981 27.594, 70.958 27.206 C 70.861 25.577, 67.080 19.634, 67.042 21.050 M 156.500 22 C 156.160 22.550, 156.359 23, 156.941 23 C 157.523 23, 158 22.550, 158 22 C 158 21.450, 157.802 21, 157.559 21 C 157.316 21, 156.840 21.450, 156.500 22 M 101 23.584 C 78.596 27.592, 62.977 35.583, 48.500 50.442 C 32.283 67.087, 23.015 89.656, 23.015 112.500 C 23.015 135.344, 32.283 157.913, 48.500 174.558 C 60.741 187.122, 74.277 194.987, 91.584 199.589 C 101.273 202.166, 123.727 202.166, 133.416 199.589 C 150.073 195.159, 163.944 187.277, 175.610 175.610 C 187.184 164.037, 194.223 151.719, 199.209 134.316 C 202.428 123.081, 202.428 101.919, 199.209 90.684 C 189.652 57.324, 167.143 34.750, 134.500 25.785 C 127.722 23.924, 106.790 22.548, 101 23.584 M 157 24.941 C 157 26.617, 158.774 27.033, 159.364 25.494 C 159.712 24.587, 159.361 24, 158.469 24 C 157.661 24, 157 24.423, 157 24.941 M 100.500 25.940 C 75.264 30.115, 54.689 42.793, 40.990 62.609 C 30.180 78.246, 25.641 92.782, 25.568 112 C 25.511 126.847, 27.995 138.308, 33.815 150.059 C 37.992 158.494, 36.020 157.832, 53 156.500 C 73.346 154.903, 90.202 161.107, 104.391 175.412 L 112.500 183.588 116.367 179.044 C 131.972 160.710, 154.672 152.952, 179.808 157.362 L 187.115 158.644 190.996 150.572 C 197.164 137.740, 199.354 127.799, 199.380 112.500 C 199.398 102.158, 198.947 97.796, 197.172 91.163 C 188.695 59.481, 165.162 35.956, 133.983 27.996 C 124.774 25.644, 108.373 24.637, 100.500 25.940 M 56 26.596 C 56 28.119, 59.568 33, 60.682 33 C 61.528 33, 61.264 31.867, 59.867 29.500 C 58.051 26.422, 56 24.881, 56 26.596 M 49 28 C 49 28.550, 49.477 29, 50.059 29 C 50.641 29, 50.840 28.550, 50.500 28 C 50.160 27.450, 49.684 27, 49.441 27 C 49.198 27, 49 27.450, 49 28 M 100.852 31.658 C 88.583 37.770, 76.698 49.190, 71.764 59.607 C 68.643 66.198, 68.500 67.025, 68.500 78.500 C 68.500 89.752, 68.696 90.950, 71.640 97.718 C 75.745 107.156, 81.514 115.023, 94.305 128.623 C 100.059 134.740, 105.928 141.727, 107.346 144.148 C 111.536 151.297, 113.335 160.132, 112.720 170.541 L 112.185 179.582 118.507 173.383 C 121.984 169.974, 126.895 165.974, 129.420 164.494 C 133.943 161.843, 135.836 158.621, 134.664 155.567 C 134.361 154.776, 134.516 153.988, 135.009 153.815 C 135.502 153.642, 136.203 151.630, 136.566 149.345 C 137.126 145.812, 136.946 145.118, 135.363 144.711 C 133.822 144.315, 133.889 144.212, 135.750 144.116 C 138.917 143.953, 138.556 142.217, 135.250 141.716 L 132.500 141.300 135.250 141.150 C 137.588 141.022, 138 140.562, 138 138.082 C 138 136.477, 138.264 134.477, 138.586 133.637 C 139.056 132.411, 138.123 132.038, 133.836 131.740 L 128.500 131.370 133.649 131.185 L 138.799 131 139.154 126.534 L 139.509 122.069 130.504 121.742 L 121.500 121.415 130.750 121.208 C 135.883 121.092, 140 120.570, 140 120.035 C 140 119.499, 135.445 118.926, 129.750 118.746 L 119.500 118.422 129.857 118.211 C 137.659 118.052, 140.098 117.692, 139.745 116.750 C 139.488 116.063, 139.633 114.600, 140.068 113.500 C 140.713 111.871, 140.872 112.103, 140.930 114.750 L 141 118 157 118 L 173 118 173 115 C 173 113.350, 173.417 112, 173.927 112 C 174.437 112, 174.684 113.350, 174.475 115 L 174.095 118 186.129 118 L 198.163 118 197.582 108.949 C 197.262 103.970, 196.289 96.770, 195.420 92.949 L 193.840 86 182.451 86 C 172.739 86, 171.147 86.221, 171.638 87.500 C 171.955 88.325, 171.716 89, 171.107 89 C 170.498 89, 170 88.325, 170 87.500 C 170 86.233, 167.667 86, 155 86 C 142.333 86, 140 86.233, 140 87.500 C 140 88.325, 139.550 89, 139 89 C 138.450 89, 138 88.334, 138 87.520 C 138 86.271, 134.770 85.995, 117.250 85.749 L 96.500 85.457 117.244 85.229 L 137.987 85 137.568 82.750 C 137.337 81.513, 137.115 79.487, 137.074 78.250 L 137 76 114.750 75.771 L 92.500 75.541 114.250 75.251 C 143.112 74.866, 143.112 73.134, 114.250 72.749 L 92.500 72.459 114.357 72.229 C 133.819 72.025, 136.147 71.827, 135.607 70.418 C 135.273 69.548, 135 68.198, 135 67.418 C 135 66.244, 131.252 65.961, 113.250 65.771 L 91.500 65.542 112.750 65.251 C 141.443 64.858, 141.084 63.075, 112.250 62.771 L 90.500 62.542 111.750 62.251 C 123.438 62.091, 133 61.684, 133 61.346 C 133 61.008, 132.479 58.992, 131.842 56.866 L 130.683 53 111.092 52.773 L 91.500 52.546 110.750 52.251 C 121.338 52.089, 129.993 51.629, 129.985 51.228 C 129.936 48.931, 127.292 48.494, 113 48.422 C 104.002 48.377, 96.451 47.879, 95 47.236 C 92.836 46.276, 92.769 46.117, 94.500 46.057 C 95.600 46.018, 99.886 46.502, 104.025 47.132 C 114.130 48.670, 127.249 47.533, 126.794 45.159 C 126.519 43.723, 124.323 43.427, 110.488 42.961 L 94.500 42.423 109.750 42.211 C 129.619 41.936, 130.382 40.082, 110.750 39.782 L 96.500 39.563 109.750 39.253 C 117.037 39.082, 123 38.596, 123 38.174 C 123 37.752, 121.294 35.740, 119.208 33.703 C 116.220 30.786, 114.576 29.972, 111.458 29.868 L 107.500 29.737 111 29.105 C 113.769 28.604, 114.118 28.319, 112.668 27.736 C 111.661 27.331, 110.694 27, 110.520 27 C 110.346 27, 105.995 29.096, 100.852 31.658 M 121.762 28.707 C 123.006 28.946, 124.806 28.937, 125.762 28.687 C 126.718 28.437, 125.700 28.241, 123.500 28.252 C 121.300 28.263, 120.518 28.468, 121.762 28.707 M 52.323 33.548 L 52.973 38.500 51.004 36 C 49.922 34.625, 49.239 32.936, 49.488 32.247 C 49.777 31.444, 49.013 31.601, 47.360 32.684 C 44.868 34.316, 44.850 34.400, 46.824 35.131 C 47.949 35.547, 49.371 36.825, 49.985 37.972 C 51.285 40.401, 52.739 39.817, 54.062 36.336 C 54.796 34.406, 55.465 34.013, 57.119 34.538 C 60.296 35.546, 59.071 33.281, 55.069 30.747 L 51.673 28.596 52.323 33.548 M 120.396 32.750 C 121.808 34.263, 123.546 36.313, 124.259 37.307 C 125.302 38.759, 126.676 39.053, 131.277 38.807 L 136.998 38.500 131.249 35.604 C 128.087 34.012, 124.306 32.099, 122.846 31.354 C 118.624 29.200, 117.618 29.773, 120.396 32.750 M 130.763 33.519 C 134.691 35.454, 138.178 37.479, 138.512 38.019 C 139.252 39.217, 151.673 39.338, 152.405 38.154 C 152.918 37.323, 147.671 34.705, 139.230 31.581 C 136.881 30.711, 132.408 30, 129.290 30 L 123.620 30 130.763 33.519 M 172 31.059 C 172 31.641, 172.450 31.840, 173 31.500 C 173.550 31.160, 174 30.684, 174 30.441 C 174 30.198, 173.550 30, 173 30 C 172.450 30, 172 30.477, 172 31.059 M 39.932 39.126 C 37.395 43.867, 42.678 48.179, 46.429 44.429 C 48.547 42.310, 48.412 41.726, 46.132 43.149 C 42.377 45.495, 39.069 41.331, 42.200 38.200 C 43.093 37.307, 43.102 37, 42.235 37 C 41.595 37, 40.558 37.957, 39.932 39.126 M 178.200 38.200 C 176.417 39.983, 176.742 42.457, 179.031 44.528 C 180.965 46.278, 181.145 46.282, 182.781 44.617 C 184.412 42.958, 184.359 42.903, 181.750 43.543 C 179.447 44.107, 179 43.894, 179 42.231 C 179 41.139, 179.618 39.732, 180.373 39.105 C 181.899 37.839, 185 38.622, 185 40.274 C 185 40.856, 185.289 41.044, 185.643 40.691 C 186.736 39.598, 183.874 37, 181.578 37 C 180.380 37, 178.860 37.540, 178.200 38.200 M 126.500 41 C 126.840 41.550, 130.129 42.087, 133.809 42.193 L 140.500 42.385 134.250 42.740 C 128.417 43.072, 126.614 44.025, 129.015 45.509 C 130.598 46.488, 141 43.831, 141 42.448 C 141 40.645, 138.590 40, 131.859 40 C 128.129 40, 126.114 40.376, 126.500 41 M 142.767 41.167 C 143.631 42.031, 144.530 42.048, 146.217 41.235 C 148.361 40.202, 148.290 40.131, 145.050 40.068 C 142.420 40.016, 141.878 40.278, 142.767 41.167 M 150 41 C 148.940 41.685, 150.261 41.969, 154.500 41.969 C 158.739 41.969, 160.060 41.685, 159 41 C 158.175 40.467, 156.150 40.031, 154.500 40.031 C 152.850 40.031, 150.825 40.467, 150 41 M 148.985 46.485 C 153.507 51.150, 152.365 51.893, 147.510 47.445 C 144.961 45.111, 143.124 44.149, 142.079 44.603 C 141.211 44.980, 138.119 45.752, 135.210 46.319 C 131.325 47.075, 130.063 47.723, 130.460 48.756 C 130.757 49.530, 131 50.568, 131 51.062 C 131 51.565, 140.036 51.958, 151.500 51.955 C 162.775 51.951, 172 51.745, 172 51.497 C 172 51.249, 169.710 49.236, 166.910 47.023 C 161.915 43.075, 161.669 43, 153.714 43 L 145.608 43 148.985 46.485 M 33.496 46.014 C 32.510 49.118, 35.471 51.959, 39.533 51.806 C 42.527 51.694, 42.724 51.497, 41.754 49.591 C 41.168 48.441, 40.376 46.825, 39.994 46 C 39.611 45.175, 38.145 44.361, 36.735 44.192 C 34.843 43.964, 33.995 44.442, 33.496 46.014 M 186.004 46.496 C 183.477 49.186, 183.914 51.146, 186.552 48.957 C 187.889 47.847, 188.301 47.865, 189.058 49.064 C 189.655 50.012, 189.495 50.851, 188.586 51.533 C 186.931 52.776, 188.588 55.500, 191 55.500 C 191.959 55.500, 192.414 56.311, 192.262 57.750 C 192.131 58.987, 192.388 60, 192.834 60 C 194.104 60, 199.124 51.842, 198.614 50.606 C 198.363 49.998, 198.122 50.288, 198.079 51.250 C 198.036 52.212, 197.381 53, 196.625 53 C 195.869 53, 193.731 53.257, 191.875 53.572 L 188.500 54.144 191.250 51.988 C 194.425 49.500, 194.880 47.586, 192.084 48.473 C 189.682 49.236, 188.430 47.391, 190.036 45.456 C 192.225 42.819, 188.574 43.760, 186.004 46.496 M 34.523 45.964 C 34.195 46.493, 34.860 47.860, 36 49 C 37.140 50.140, 38.507 50.805, 39.036 50.477 C 40.636 49.489, 40.122 47.136, 38.066 46.035 C 35.679 44.758, 35.273 44.749, 34.523 45.964 M 94.750 49.706 C 95.987 49.944, 98.013 49.944, 99.250 49.706 C 100.487 49.467, 99.475 49.272, 97 49.272 C 94.525 49.272, 93.513 49.467, 94.750 49.706 M 135.750 49.732 C 138.088 49.943, 141.912 49.943, 144.250 49.732 C 146.588 49.522, 144.675 49.349, 140 49.349 C 135.325 49.349, 133.412 49.522, 135.750 49.732 M 156.750 49.732 C 159.088 49.943, 162.912 49.943, 165.250 49.732 C 167.588 49.522, 165.675 49.349, 161 49.349 C 156.325 49.349, 154.412 49.522, 156.750 49.732 M 30.964 51.456 C 32.570 53.391, 31.318 55.236, 28.916 54.473 C 25.876 53.508, 26.690 55.607, 30.224 57.845 C 33.735 60.068, 35.014 59.927, 33.031 57.537 C 32.341 56.706, 32.057 55.294, 32.400 54.400 C 32.910 53.071, 33.299 53.003, 34.536 54.030 C 35.368 54.720, 36.326 55.007, 36.666 54.668 C 37.462 53.871, 32.928 50.077, 31.128 50.033 C 30.039 50.007, 30.005 50.301, 30.964 51.456 M 132.566 55.250 C 134.826 62.503, 133.744 62, 147.090 62 L 159.230 62 157.549 59.434 C 153.329 52.994, 153.344 53, 142.210 53 C 131.941 53, 131.870 53.016, 132.566 55.250 M 158.107 57.500 L 161.339 62 171.242 62 L 181.145 62 179.323 59.746 C 173.642 52.722, 174.264 53, 164.216 53 L 154.876 53 158.107 57.500 M 193 55.059 C 193 55.641, 193.450 55.840, 194 55.500 C 194.550 55.160, 195 54.684, 195 54.441 C 195 54.198, 194.550 54, 194 54 C 193.450 54, 193 54.477, 193 55.059 M 24 59.968 C 24 60.500, 25.238 61.649, 26.750 62.520 L 29.500 64.105 25.250 63.541 C 20.919 62.966, 19.885 63.830, 22.403 65.919 C 23.480 66.813, 23.942 66.783, 24.394 65.792 C 24.717 65.081, 24.751 65.449, 24.468 66.609 C 24.167 67.848, 24.609 69.261, 25.540 70.033 C 26.939 71.194, 27.047 71.034, 26.454 68.675 C 25.894 66.442, 26.114 66, 27.785 66 C 29.391 66, 31.840 63.176, 30.774 62.554 C 30.623 62.466, 29.278 61.631, 27.785 60.697 C 24.665 58.747, 24 58.619, 24 59.968 M 196.500 61 C 193.355 63.083, 193.742 63.744, 197.066 61.965 C 199.286 60.776, 199.489 61.584, 197.972 65.574 C 196.579 69.237, 197.124 69.449, 201.417 66.917 C 205.207 64.680, 205.789 62.972, 202.086 64.954 C 200.939 65.568, 200 65.939, 200 65.779 C 200 65.618, 200.419 64.027, 200.930 62.243 C 202.041 58.369, 200.940 58.060, 196.500 61 M 136.307 67.500 L 137.337 72 150.668 72 C 158.001 72, 164 71.757, 164 71.460 C 164 71.163, 163.091 69.138, 161.980 66.960 L 159.959 63 147.618 63 L 135.277 63 136.307 67.500 M 162 63.469 C 162 63.727, 162.945 65.752, 164.101 67.969 L 166.202 72 176.601 72 C 182.320 72, 187 71.759, 187 71.465 C 187 71.170, 186.273 69.820, 185.385 68.465 C 183.862 66.140, 183.193 65.988, 173.635 65.791 L 163.500 65.581 173.286 65.254 C 179.228 65.055, 182.839 64.548, 182.477 63.963 C 181.896 63.022, 162 62.542, 162 63.469 M 142.789 65.741 C 146.248 65.937, 151.648 65.936, 154.789 65.738 C 157.930 65.540, 155.100 65.380, 148.500 65.382 C 141.900 65.384, 139.330 65.546, 142.789 65.741 M 200.750 68.103 C 199.787 68.651, 199 69.752, 199 70.550 C 199 71.347, 198.550 72, 198 72 C 197.450 72, 197 72.498, 197 73.107 C 197 73.716, 197.661 73.960, 198.468 73.651 C 199.275 73.341, 200.202 73.518, 200.527 74.044 C 201.718 75.970, 204.919 74.918, 207.361 71.797 C 208.740 70.036, 209.691 68.310, 209.476 67.961 C 208.836 66.925, 202.641 67.026, 200.750 68.103 M 28.500 69 C 28.160 69.550, 28.359 70, 28.941 70 C 29.523 70, 30 69.550, 30 69 C 30 68.450, 29.802 68, 29.559 68 C 29.316 68, 28.840 68.450, 28.500 69 M 207 68.740 C 207 69.330, 206.098 69.577, 204.995 69.288 C 202.992 68.765, 200 70.463, 200 72.122 C 200 72.605, 201.055 73, 202.345 73 C 204.794 73, 208.806 69.473, 207.661 68.327 C 207.297 67.964, 207 68.150, 207 68.740 M 17.428 71.470 C 16.493 72.896, 15.903 74.174, 16.115 74.311 C 16.327 74.448, 18.181 75.323, 20.237 76.257 L 23.973 77.955 24.634 75.323 C 26.021 69.795, 20.470 66.827, 17.428 71.470 M 18.500 72 C 17.914 72.948, 18.591 73.380, 20.250 73.118 C 20.663 73.053, 21 73.450, 21 74 C 21 74.550, 21.675 75, 22.500 75 C 24.491 75, 24.428 72.378, 22.418 71.607 C 20.188 70.751, 19.211 70.849, 18.500 72 M 137.500 74 C 137.864 74.590, 143.863 75, 152.118 75 C 161.197 75, 165.901 74.648, 165.500 74 C 165.136 73.410, 159.137 73, 150.882 73 C 141.803 73, 137.099 73.352, 137.500 74 M 167 74 C 167 74.606, 171.353 75, 178.059 75 C 185.177 75, 188.898 74.644, 188.500 74 C 188.152 73.437, 183.323 73, 177.441 73 C 171.147 73, 167 73.397, 167 74 M 204.750 75.299 C 203.238 75.897, 202 76.938, 202 77.613 C 202 78.525, 203.016 78.440, 205.972 77.279 C 208.157 76.421, 209.705 75.332, 209.413 74.859 C 208.782 73.838, 208.345 73.879, 204.750 75.299 M 138.393 77.582 C 138.727 78.452, 139 80.477, 139 82.082 L 139 85 154.067 85 C 167.949 85, 169.094 84.862, 168.615 83.250 C 168.329 82.287, 167.800 80.263, 167.439 78.750 L 166.783 76 152.285 76 C 139.475 76, 137.857 76.184, 138.393 77.582 M 168 76.435 C 168 76.674, 168.525 78.137, 169.166 79.685 C 169.808 81.233, 170.370 82.950, 170.416 83.500 C 170.501 84.511, 193 85.547, 193 84.540 C 193 84.250, 192.219 82.211, 191.264 80.007 L 189.528 76 178.764 76 C 172.844 76, 168 76.196, 168 76.435 M 89 101 C 89 109.933, 89.019 110, 91.500 110 C 93.750 110, 94 109.600, 94 106 C 94 102.095, 94.083 102, 97.500 102 C 100.917 102, 101 102.095, 101 106 C 101 109.600, 101.250 110, 103.500 110 C 105.981 110, 106 109.933, 106 101 C 106 92.067, 105.981 92, 103.500 92 C 101.389 92, 101 92.467, 101 95 C 101 97.762, 100.722 98, 97.500 98 C 94.278 98, 94 97.762, 94 95 C 94 92.467, 93.611 92, 91.500 92 C 89.019 92, 89 92.067, 89 101 M 110 98.545 C 110 106.782, 112.516 110, 118.955 110 C 125.229 110, 127 107.579, 127 99 C 127 92.235, 126.918 92, 124.546 92 C 122.212 92, 122.077 92.330, 121.796 98.750 C 121.527 104.889, 121.296 105.529, 119.244 105.820 C 116.353 106.231, 115.190 103.292, 115.677 96.810 C 116.035 92.046, 116.010 92, 113.019 92 L 110 92 110 98.545 M 131.211 100.750 C 131.480 108.894, 131.652 109.522, 133.696 109.812 C 135.688 110.096, 135.919 109.636, 136.196 104.833 L 136.500 99.541 140.294 104.834 C 143.195 108.881, 144.608 110.054, 146.294 109.814 C 148.350 109.521, 148.520 108.907, 148.789 100.750 C 149.077 92.021, 149.072 92, 146.594 92 C 144.340 92, 144.081 92.440, 143.805 96.750 L 143.500 101.500 140.080 96.750 C 137.367 92.981, 136.068 92, 133.792 92 L 130.922 92 131.211 100.750 M 153 100.956 C 153 109.936, 153.018 110, 155.500 110 C 157.750 110, 158 109.600, 158 106 C 158 103.800, 158.421 102, 158.936 102 C 159.451 102, 160.884 103.800, 162.120 106 C 163.912 109.187, 164.940 110, 167.184 110 C 170.597 110, 170.670 109.288, 167.706 104.898 L 165.411 101.500 167.436 99.855 C 169.130 98.477, 169.297 97.745, 168.459 95.355 C 167.498 92.613, 167.173 92.488, 160.229 92.206 L 153 91.912 153 100.956 M 172.211 100.750 L 172.500 109.500 179.986 109.500 C 186.321 109.500, 187.524 109.231, 187.810 107.750 C 188.095 106.269, 187.367 106, 183.073 106 C 178.667 106, 178 105.737, 178 104 C 178 102.292, 178.667 102, 182.573 102 C 186.389 102, 187.092 101.710, 186.815 100.250 C 186.573 98.973, 185.335 98.417, 182.241 98.193 C 179.355 97.983, 178 97.424, 178 96.443 C 178 95.400, 179.246 95, 182.500 95 C 185.833 95, 187 94.611, 187 93.500 C 187 92.299, 185.496 92, 179.461 92 L 171.922 92 172.211 100.750 M 13.032 94.250 C 13.012 95.365, 12.219 96, 10.845 96 C 8.879 96, 8.823 96.153, 10.215 97.750 C 11.053 98.713, 11.560 99.987, 11.342 100.583 C 11.111 101.211, 12.228 101.667, 14 101.667 C 15.772 101.667, 16.889 101.211, 16.658 100.583 C 16.440 99.987, 16.947 98.713, 17.785 97.750 C 19.164 96.167, 19.139 96, 17.515 96 C 16.528 96, 15.123 95.213, 14.392 94.250 C 13.127 92.583, 13.062 92.583, 13.032 94.250 M 210.752 94.250 C 210.373 95.213, 209.036 96.014, 207.781 96.032 C 205.616 96.062, 205.594 96.134, 207.341 97.458 C 208.614 98.423, 208.972 99.511, 208.503 100.990 C 207.890 102.922, 208.017 103.006, 209.831 101.873 C 211.394 100.897, 212.157 100.885, 213.282 101.819 C 214.489 102.821, 214.647 102.606, 214.246 100.509 C 213.966 99.042, 214.231 98, 214.883 98 C 215.498 98, 216 97.550, 216 97 C 216 96.450, 215.133 96, 214.073 96 C 213.014 96, 211.988 95.213, 211.794 94.250 C 211.458 92.583, 211.408 92.583, 210.752 94.250 M 158 97 C 158 98.467, 158.667 99, 160.500 99 C 162.333 99, 163 98.467, 163 97 C 163 95.533, 162.333 95, 160.500 95 C 158.667 95, 158 95.533, 158 97 M 8 108 C 8 108.550, 8.900 109, 10 109 C 11.348 109, 12 109.667, 12 111.044 C 12 112.389, 11.441 112.987, 10.364 112.794 C 8.340 112.431, 7.656 115.654, 9.599 116.399 C 11.337 117.067, 11.439 119.676, 9.750 120.280 C 9.063 120.525, 8.782 121.032, 9.126 121.406 C 9.822 122.161, 17 119.019, 17 117.959 C 17 117.591, 15.537 116.820, 13.750 116.247 C 10.593 115.234, 10.577 115.201, 13.191 115.102 C 16.513 114.976, 17.687 113.413, 14.989 112.707 C 12.418 112.035, 12.425 109.963, 15 109.290 C 18.584 108.353, 17.107 107, 12.500 107 C 10.025 107, 8 107.450, 8 108 M 208.290 110.461 C 208.465 113.753, 208.911 114.517, 210.937 114.991 L 213.374 115.561 210.799 117.530 C 209.219 118.739, 207.975 120.925, 207.578 123.188 C 206.936 126.855, 206.953 126.877, 210.716 127.270 L 214.500 127.664 210.595 127.832 C 206.756 127.997, 206.721 128.034, 208.500 130 C 210.353 132.047, 212.613 132.801, 211.500 131 C 211.160 130.450, 211.788 130, 212.896 130 C 214.410 130, 215.074 129.121, 215.575 126.453 C 215.941 124.503, 215.961 122.628, 215.620 122.287 C 215.279 121.946, 215 122.417, 215 123.333 C 215 125.548, 212.272 125.479, 211.689 123.250 C 211.254 121.583, 211.226 121.583, 211.116 123.250 C 210.954 125.687, 209 125.456, 209 123 C 209 121.334, 209.711 120.978, 213.250 120.868 C 217.391 120.740, 217.414 120.721, 214.153 120.118 L 210.806 119.500 213.931 117.200 C 217.512 114.563, 217.166 113, 213 113 C 211.415 113, 209.840 112.550, 209.500 112 C 209.127 111.396, 210.490 111, 212.941 111 C 215.173 111, 217 110.550, 217 110 C 217 109.450, 215.238 109, 213.083 109 C 210.907 109, 208.925 108.445, 208.623 107.750 C 208.324 107.063, 208.174 108.282, 208.290 110.461 M 141 120 C 141 120.625, 147 121, 157 121 C 167 121, 173 120.625, 173 120 C 173 119.375, 167 119, 157 119 C 147 119, 141 119.375, 141 120 M 174 120 C 174 120.609, 178.500 121, 185.500 121 C 192.500 121, 197 120.609, 197 120 C 197 119.391, 192.500 119, 185.500 119 C 178.500 119, 174 119.391, 174 120 M 0.126 172.250 L 0 225 52.750 224.874 C 88.274 224.788, 103.258 224.459, 98.635 223.865 C 73.610 220.652, 49.852 208.811, 32.384 190.847 C 15.033 173.003, 4.272 150.798, 1.135 126.365 C 0.541 121.742, 0.212 136.726, 0.126 172.250 M 223.692 126.399 C 223.363 129.919, 222.174 136.400, 221.050 140.803 C 209.878 184.560, 171.711 218.042, 126.365 223.865 C 121.742 224.459, 136.726 224.788, 172.250 224.874 L 225 225 225 172.500 C 225 143.625, 224.840 120, 224.645 120 C 224.449 120, 224.020 122.880, 223.692 126.399 M 11 123 C 8.519 123.795, 8.522 123.801, 11.424 123.900 L 14.349 124 12.237 126.250 C 9.620 129.037, 9.775 135.735, 12.492 137.255 C 13.888 138.037, 13.970 138.401, 12.899 139.062 C 10.568 140.503, 12.470 140.985, 16.306 139.926 C 19.543 139.032, 21.510 137, 19.139 137 C 18.665 137, 18.482 135.928, 18.733 134.617 C 18.983 133.307, 18.716 131.942, 18.138 131.585 C 17.560 131.228, 17.350 130.253, 17.670 129.417 C 18.141 128.191, 17.713 128.034, 15.450 128.602 L 12.646 129.306 14.823 126.248 C 16.020 124.567, 17 122.923, 17 122.596 C 17 121.808, 14.113 122.003, 11 123 M 140.926 124.250 C 140.885 125.487, 140.661 127.524, 140.428 128.775 L 140.005 131.051 155.658 130.775 C 170.278 130.518, 171.330 130.372, 171.595 128.559 C 171.751 127.491, 172.140 125.579, 172.459 124.309 L 173.038 122 157.019 122 C 141.095 122, 141 122.013, 140.926 124.250 M 173.886 123.750 C 173.823 124.713, 173.625 126.737, 173.446 128.250 L 173.120 131 184.435 131 L 195.750 131 196.375 127.875 C 197.590 121.800, 197.960 122, 185.500 122 C 175.258 122, 173.988 122.191, 173.886 123.750 M 12.010 133.488 C 11.012 134.690, 11.073 135.091, 12.329 135.573 C 14.794 136.519, 17.447 135.631, 17.812 133.739 C 18.240 131.516, 13.806 131.324, 12.010 133.488 M 140 134.918 C 140 136.523, 139.727 138.548, 139.393 139.418 C 138.856 140.817, 140.519 141, 153.785 141 L 168.783 141 169.439 138.250 C 169.800 136.738, 170.329 134.713, 170.615 133.750 C 171.094 132.136, 169.925 132, 155.567 132 L 140 132 140 134.918 M 171.411 136.500 L 170.367 141 181.575 141 L 192.783 141 193.547 138.250 C 195.402 131.573, 196.074 132, 183.721 132 L 172.455 132 171.411 136.500 M 209.250 133.316 C 207.463 133.851, 206 134.609, 206 135 C 206 135.391, 207.463 136.200, 209.250 136.799 L 212.500 137.886 208.500 137.425 C 205.001 137.021, 204.808 137.097, 206.957 138.026 L 209.414 139.089 206.624 140.918 C 205.090 141.925, 203.819 143.142, 203.799 143.624 C 203.779 144.106, 203.175 145.339, 202.457 146.365 C 201.739 147.390, 201.390 148.853, 201.682 149.615 C 201.975 150.377, 201.788 151, 201.268 151 C 200.747 151, 199.838 152.060, 199.247 153.356 C 198.277 155.485, 198.506 155.871, 201.621 157.356 C 205.832 159.365, 206.365 159.394, 205.670 157.583 C 205.371 156.803, 205.773 155.917, 206.563 155.614 C 208.724 154.785, 208.307 152.768, 206.118 153.462 C 205.027 153.809, 204.030 153.521, 203.745 152.778 C 203.409 151.904, 204.247 151.496, 206.377 151.498 C 209.249 151.500, 209.489 151.244, 209.361 148.324 C 209.249 145.783, 209.549 145.262, 210.861 145.721 C 211.984 146.114, 212.185 145.964, 211.500 145.244 C 210.950 144.667, 209.600 144.015, 208.500 143.797 C 206.764 143.452, 206.913 143.180, 209.629 141.737 C 213.684 139.582, 214.742 137.007, 211.880 136.258 C 209.893 135.739, 209.940 135.625, 212.592 134.541 C 216.387 132.990, 213.667 131.993, 209.250 133.316 M 17.228 143.039 C 13.870 144.388, 13.271 146.991, 15.839 149.071 C 17.381 150.319, 17.647 151.001, 16.756 151.421 C 16.065 151.746, 16.748 151.773, 18.274 151.481 L 21.048 150.950 19.575 154.475 C 17.940 158.387, 18.608 158.771, 23.050 156.474 C 26.614 154.631, 26.941 153.692, 23.573 154.972 L 21.146 155.895 22.641 152.316 C 24.465 147.950, 23.417 146.511, 19.500 148 C 17.715 148.679, 16.324 148.724, 15.724 148.124 C 14.310 146.710, 15.644 145.237, 19.011 144.497 C 20.655 144.136, 22 143.427, 22 142.921 C 22 141.789, 20.232 141.833, 17.228 143.039 M 139 143 C 139 143.621, 144.500 144, 153.500 144 C 162.500 144, 168 143.621, 168 143 C 168 142.379, 162.500 142, 153.500 142 C 144.500 142, 139 142.379, 139 143 M 170 143 C 170 143.606, 174.333 144, 181 144 C 187.667 144, 192 143.606, 192 143 C 192 142.394, 187.667 142, 181 142 C 174.333 142, 170 142.394, 170 143 M 138.555 146.250 C 138.345 146.938, 137.918 148.975, 137.606 150.778 L 137.039 154.056 150.522 153.778 C 158.558 153.612, 164.052 153.096, 164.121 152.500 C 164.185 151.950, 164.859 150.612, 165.618 149.527 C 168.589 145.286, 167.790 145, 152.969 145 C 142.614 145, 138.837 145.328, 138.555 146.250 M 168.109 147.250 C 165.378 154.551, 164.703 154, 176.374 154 C 190.236 154, 191.381 152.175, 177.787 151.746 L 167.500 151.422 178.089 151.211 C 188.377 151.006, 188.712 150.927, 189.839 148.453 C 190.478 147.052, 191 145.702, 191 145.453 C 191 145.204, 186.039 145, 179.975 145 C 169.458 145, 168.912 145.104, 168.109 147.250 M 203 147.465 C 203 149.518, 206.903 151.497, 208.265 150.135 C 208.999 149.401, 208.929 148.620, 208.035 147.542 C 206.410 145.585, 203 145.532, 203 147.465 M 144.750 151.740 C 148.188 151.936, 153.813 151.936, 157.250 151.740 C 160.688 151.545, 157.875 151.385, 151 151.385 C 144.125 151.385, 141.313 151.545, 144.750 151.740 M 200 154 C 200 154.550, 200.702 155, 201.559 155 C 202.416 155, 202.840 154.550, 202.500 154 C 202.160 153.450, 201.459 153, 200.941 153 C 200.423 153, 200 153.450, 200 154 M 136.918 155.250 C 136.873 155.387, 136.629 156.763, 136.376 158.308 C 135.941 160.965, 136.039 161.049, 138.208 159.880 C 139.469 159.200, 142.975 157.848, 146 156.876 L 151.500 155.108 144.250 155.054 C 140.262 155.024, 136.963 155.113, 136.918 155.250 M 183.813 155.683 C 184.534 155.972, 185.397 155.936, 185.729 155.604 C 186.061 155.272, 185.471 155.036, 184.417 155.079 C 183.252 155.127, 183.015 155.364, 183.813 155.683 M 23.250 157.776 C 21.462 158.649, 20 159.731, 20 160.181 C 20 161.340, 20.684 161.215, 24.160 159.417 C 27.515 157.683, 27.376 158.641, 23.677 162.750 C 21.535 165.130, 21.739 165.297, 26.500 165.067 L 29.500 164.921 27.140 166.798 C 25.033 168.473, 24.925 168.907, 26.130 170.837 C 26.873 172.027, 27.823 173, 28.241 173 C 28.658 173, 29 173.730, 29 174.622 C 29 176.020, 29.234 176.055, 30.687 174.872 C 32.170 173.666, 32.292 173.719, 31.699 175.302 C 30.904 177.420, 33.583 182, 35.615 182 C 36.377 182, 36.947 182.338, 36.882 182.750 C 36.508 185.114, 37.312 185.075, 39.890 182.605 C 43.470 179.176, 45.326 180.960, 41.934 184.570 C 39.031 187.660, 40.242 189.060, 43.318 186.171 C 44.589 184.977, 45.937 184, 46.314 184 C 47.466 184, 47.077 188.523, 45.817 189.783 C 43.792 191.808, 45.444 192.017, 49.271 190.220 C 53.310 188.324, 54.233 186.865, 50.831 187.754 C 49.174 188.188, 48.801 187.962, 49.249 186.795 C 49.628 185.805, 47.956 183.413, 44.497 179.997 C 38.692 174.264, 36.024 173.865, 35.968 178.719 C 35.938 181.380, 35.873 181.416, 34.468 179.559 C 32.438 176.874, 32.613 176.097, 35.500 175 C 36.875 174.477, 38 173.814, 38 173.527 C 38 173.240, 36.427 170.816, 34.505 168.140 C 31.591 164.084, 30.594 163.355, 28.505 163.754 C 25.656 164.299, 25.325 163.403, 27.492 161.009 C 28.696 159.678, 28.744 159.054, 27.742 157.774 C 26.608 156.327, 26.217 156.327, 23.250 157.776 M 196.711 158.250 C 196.460 158.938, 197.210 160.565, 198.377 161.867 L 200.500 164.233 197.345 163.558 C 195.416 163.145, 193.926 163.311, 193.509 163.985 C 192.758 165.201, 194.665 168, 196.245 168 C 196.874 168, 196.846 167.520, 196.171 166.707 C 195.320 165.681, 195.813 165.496, 198.549 165.816 C 201.832 166.199, 203.233 164.880, 201.005 163.503 C 200.458 163.165, 199.528 161.986, 198.938 160.884 C 197.898 158.940, 197.957 158.926, 200.883 160.439 C 204.406 162.261, 205 162.346, 205 161.026 C 205 160.021, 199.848 157, 198.133 157 C 197.602 157, 196.961 157.563, 196.711 158.250 M 46.750 164.716 C 45.237 164.945, 44 165.572, 44 166.109 C 44 167.750, 53.035 176.857, 59.444 181.675 C 71.970 191.092, 92.774 199, 105.023 199 L 109.789 199 109.014 195.562 C 105.883 181.679, 91.998 169.804, 73.912 165.541 C 68.006 164.149, 53.419 163.706, 46.750 164.716 M 149.202 166.022 C 131.355 170.698, 118.060 182.450, 115.363 195.934 L 114.686 199.320 122.217 198.683 C 135.940 197.523, 151.821 191.408, 163.500 182.786 C 169.315 178.494, 181 167.225, 181 165.910 C 181 163.417, 158.847 163.495, 149.202 166.022 M 30.758 166.576 C 30.380 166.954, 30.570 168.216, 31.181 169.381 C 32.266 171.452, 32.244 171.459, 30.245 169.685 C 27.678 167.408, 25.954 169.383, 28.386 171.814 C 29.882 173.311, 30.164 173.281, 32.017 171.427 C 33.716 169.729, 33.827 169.145, 32.736 167.653 C 32.026 166.682, 31.136 166.198, 30.758 166.576 M 193.557 168.995 C 191.104 169.463, 188.692 170.820, 187.175 172.583 L 184.737 175.417 188.008 178.148 L 191.278 180.878 193.053 178.689 C 194.029 177.485, 194.580 176.275, 194.277 176 C 193.974 175.725, 193.525 176.063, 193.280 176.750 C 193.034 177.438, 192.166 178, 191.349 178 C 190.267 178, 190.058 177.393, 190.577 175.758 C 191.181 173.854, 191.064 173.702, 189.802 174.749 C 187.822 176.393, 186.829 175.247, 188.255 172.964 C 189.346 171.216, 189.506 171.224, 192.254 173.181 C 193.827 174.301, 195.353 174.981, 195.643 174.690 C 195.934 174.400, 195.120 173.570, 193.836 172.847 C 191.547 171.558, 191.577 171.521, 195.283 171.016 C 197.364 170.732, 199.085 170.061, 199.108 169.525 C 199.165 168.205, 198.186 168.111, 193.557 168.995 M 34.667 171.667 C 34.300 172.033, 34 172.798, 34 173.367 C 34 173.993, 34.466 173.934, 35.183 173.217 C 35.834 172.566, 36.134 171.801, 35.850 171.517 C 35.566 171.232, 35.033 171.300, 34.667 171.667 M 38.220 179.017 C 38.300 181.859, 38.409 181.939, 40.109 180.402 C 41.645 179.011, 41.707 178.564, 40.528 177.385 C 38.514 175.371, 38.124 175.647, 38.220 179.017 M 179.807 180.750 C 177.314 183.653, 176.909 184.826, 178.138 185.585 C 178.932 186.076, 179.046 185.857, 178.493 184.905 C 178.045 184.132, 178.875 184.591, 180.339 185.924 C 181.802 187.258, 183 188.565, 183 188.829 C 183 189.094, 182.100 188.495, 181 187.500 C 179.673 186.299, 179 186.116, 179 186.956 C 179 187.862, 178.003 188.036, 175.500 187.566 C 173.575 187.205, 172 187.198, 172 187.550 C 172 188.849, 176.171 194, 177.223 194 C 177.821 194, 177.495 193.100, 176.500 192 C 174.719 190.032, 174.753 190, 178.671 190 C 183.090 190, 187 186.895, 187 183.386 C 187 179.210, 182.535 177.574, 179.807 180.750 M 180 181.826 C 180 182.280, 181.067 183.654, 182.372 184.880 C 184.496 186.875, 184.812 186.932, 185.389 185.427 C 185.744 184.503, 185.522 183.129, 184.895 182.373 C 183.661 180.887, 180 180.478, 180 181.826 M 168.385 191.750 C 168.671 192.713, 169.222 194.824, 169.609 196.442 C 170.291 199.291, 170.340 199.313, 171.150 197.123 C 171.774 195.436, 172.497 195.023, 173.993 195.498 C 177.179 196.509, 176.324 194.363, 172.632 192.082 C 168.526 189.544, 167.711 189.480, 168.385 191.750 M 51.832 193.470 C 50.396 196.622, 52.352 199.357, 55.598 198.737 C 57.153 198.439, 57.663 198.715, 57.302 199.656 C 56.401 202.003, 58.702 201.103, 60.459 198.422 C 61.546 196.763, 62.708 196.058, 63.716 196.444 C 65.037 196.951, 65.078 196.799, 63.981 195.477 C 63.265 194.615, 62.157 194.110, 61.518 194.355 C 60.879 194.600, 59.822 193.945, 59.170 192.900 C 57.432 190.117, 53.210 190.445, 51.832 193.470 M 54.200 193.200 C 52.600 194.800, 52.667 198, 54.300 198 C 56.155 198, 58 195.906, 58 193.800 C 58 191.744, 55.976 191.424, 54.200 193.200 M 161.380 195.452 C 160.605 197.473, 161.758 199, 164.059 199 C 166.476 199, 166.626 200.729, 164.250 201.200 C 163.150 201.418, 162.909 201.805, 163.603 202.241 C 164.209 202.623, 165.471 202.376, 166.407 201.692 C 168.728 199.995, 167.442 197, 164.393 197 C 161.864 197, 161.138 195.515, 163.250 194.662 C 164.229 194.267, 164.222 194.141, 163.219 194.079 C 162.514 194.036, 161.686 194.653, 161.380 195.452 M 155.778 197.901 C 153.730 198.857, 151.219 200.397, 150.197 201.322 C 149.174 202.247, 148.110 202.776, 147.831 202.498 C 147.552 202.219, 145.936 202.475, 144.239 203.067 C 141.336 204.079, 141.215 204.319, 142.201 207.147 C 142.924 209.222, 142.928 210.472, 142.211 211.189 C 140.715 212.685, 139.252 211.425, 138.497 207.989 C 138.136 206.345, 137.379 205, 136.814 205 C 136.248 205, 136.085 205.786, 136.452 206.750 C 136.986 208.153, 136.869 208.252, 135.859 207.250 C 133.847 205.253, 131.049 205.799, 129.854 208.421 C 128.801 210.732, 126 210.998, 126 208.786 C 126 208.236, 126.675 208.045, 127.500 208.362 C 128.325 208.678, 129 208.468, 129 207.895 C 129 205.900, 125.498 207.536, 125.192 209.674 C 124.983 211.134, 125.547 212.039, 126.942 212.481 C 130.300 213.547, 129.292 214.760, 125 214.819 C 120.763 214.878, 119.852 213.768, 122.750 212.080 C 124.417 211.109, 124.417 211.059, 122.750 211.030 C 121.787 211.014, 121 210.583, 121 210.073 C 121 209.564, 121.787 208.941, 122.750 208.689 C 123.827 208.408, 123.442 208.187, 121.750 208.116 C 119.183 208.008, 119 208.270, 119 212.059 C 119 214.500, 118.603 215.873, 118.004 215.502 C 117.456 215.164, 117.119 213.450, 117.254 211.693 C 117.470 208.888, 117.196 208.500, 115 208.500 C 112.774 208.500, 112.466 208.965, 112.193 212.750 C 112.011 215.265, 112.317 217, 112.943 217 C 113.524 217, 114.014 216.213, 114.032 215.250 C 114.062 213.600, 114.141 213.602, 115.417 215.284 C 116.451 216.647, 117.566 216.918, 120.135 216.432 C 121.986 216.082, 124.730 215.811, 126.233 215.830 C 127.736 215.850, 129.226 215.444, 129.544 214.929 C 129.862 214.414, 131.190 214.261, 132.495 214.588 C 134.208 215.018, 135.214 214.630, 136.111 213.194 C 137.083 211.638, 137.722 211.434, 139.044 212.260 C 139.974 212.841, 141.519 213.015, 142.477 212.647 C 143.855 212.118, 144.103 211.198, 143.666 208.239 L 143.114 204.500 144.201 207.750 C 145.346 211.171, 147 212.132, 147 209.378 C 147 208.037, 147.265 207.975, 148.524 209.020 C 149.362 209.716, 150.342 209.991, 150.701 209.632 C 151.060 209.273, 150.487 208.323, 149.427 207.521 C 148.367 206.720, 148.036 206.049, 148.691 206.032 C 149.346 206.014, 150.160 206.450, 150.500 207 C 151.298 208.291, 155.697 208.299, 156.493 207.011 C 156.844 206.443, 156.439 206.278, 155.539 206.623 C 154.679 206.954, 153.305 206.668, 152.487 205.989 C 150.953 204.716, 150.421 201.059, 151.750 200.923 C 152.162 200.881, 153.252 200.701, 154.170 200.524 C 155.238 200.317, 156.274 201.247, 157.042 203.100 C 158.423 206.434, 158.897 206.576, 161.559 204.448 C 163.445 202.940, 163.437 202.914, 161.250 203.516 C 159.610 203.967, 159 203.710, 159 202.567 C 159 201.705, 159.450 201, 160 201 C 160.550 201, 161 200.495, 161 199.878 C 161 199.052, 160.645 199.050, 159.658 199.869 C 158.920 200.481, 158.020 200.687, 157.658 200.325 C 156.515 199.182, 156.943 198, 158.500 198 C 159.325 198, 160 197.550, 160 197 C 160 196.450, 159.887 196.036, 159.750 196.081 C 159.613 196.125, 157.825 196.944, 155.778 197.901 M 65.543 199.918 C 63.668 203.543, 63.531 206.474, 65.393 203.115 C 66.804 200.570, 67.353 200.945, 68.353 205.141 C 68.911 207.478, 69.373 207.730, 72.358 207.328 C 75.197 206.945, 75.861 207.240, 76.534 209.186 C 77.208 211.137, 77.396 210.816, 77.729 207.146 C 77.947 204.751, 77.867 202.534, 77.552 202.219 C 77.237 201.904, 75.634 202.935, 73.990 204.510 C 70.622 207.737, 70.304 207.338, 72.549 202.700 L 74.099 199.500 72.131 201.760 L 70.163 204.020 69.505 201.021 C 68.578 196.800, 67.334 196.454, 65.543 199.918 M 61.500 199 C 61.840 199.550, 62.316 200, 62.559 200 C 62.802 200, 63 199.550, 63 199 C 63 198.450, 62.523 198, 61.941 198 C 61.359 198, 61.160 198.450, 61.500 199 M 80.294 207.539 C 80.070 212.479, 81.454 212.761, 82.503 207.989 C 83.432 203.755, 85.399 204.157, 84.704 208.438 C 84.002 212.765, 86.103 215.042, 89.081 213.181 C 90.655 212.199, 91 212.255, 91 213.492 C 91 215.615, 92.985 215.383, 93.068 213.250 C 93.122 211.857, 93.357 211.959, 94.220 213.750 C 95.461 216.323, 96.241 216.491, 98.989 214.775 C 100.638 213.745, 101.204 213.864, 102.543 215.525 C 104.043 217.384, 104.101 217.238, 103.522 213.038 C 102.827 207.983, 102.576 207.526, 101.026 208.484 C 100.417 208.860, 100.191 210.143, 100.525 211.334 C 100.957 212.879, 100.859 213.107, 100.182 212.130 C 99.409 211.013, 99.041 211.104, 98.192 212.622 C 97.619 213.646, 96.796 214.129, 96.363 213.696 C 95.930 213.263, 96.158 211.976, 96.870 210.837 C 98.380 208.419, 97.561 207.310, 93.761 206.628 C 91.361 206.197, 90.920 206.530, 90.197 209.318 C 89.013 213.889, 86.420 213.540, 86.780 208.858 C 87.033 205.565, 86.755 205.110, 83.881 204.108 C 82.132 203.499, 80.656 203.003, 80.601 203.007 C 80.545 203.011, 80.407 205.050, 80.294 207.539 M 74.500 205 C 74.160 205.550, 74.359 206, 74.941 206 C 75.523 206, 76 205.550, 76 205 C 76 204.450, 75.802 204, 75.559 204 C 75.316 204, 74.840 204.450, 74.500 205 M 145.500 205 C 145.840 205.550, 146.316 206, 146.559 206 C 146.802 206, 147 205.550, 147 205 C 147 204.450, 146.523 204, 145.941 204 C 145.359 204, 145.160 204.450, 145.500 205 M 131.424 208.339 C 130.751 210.092, 132.597 214, 134.099 214 C 135.551 214, 134.766 207.741, 133.251 207.244 C 132.563 207.018, 131.741 207.511, 131.424 208.339 M 94 209.559 C 94 210.416, 94.450 210.840, 95 210.500 C 95.550 210.160, 96 209.459, 96 208.941 C 96 208.423, 95.550 208, 95 208 C 94.450 208, 94 208.702, 94 209.559 M 105.667 208.667 C 105.300 209.033, 105 211.058, 105 213.167 C 105 216.710, 105.208 216.991, 107.750 216.884 C 109.568 216.807, 109.884 216.609, 108.681 216.297 C 107.296 215.939, 106.931 215.025, 107.151 212.467 C 107.448 209.022, 106.848 207.485, 105.667 208.667 M 114 210.441 C 114 211.298, 114.450 212, 115 212 C 115.550 212, 116 211.577, 116 211.059 C 116 210.541, 115.550 209.840, 115 209.500 C 114.450 209.160, 114 209.584, 114 210.441" stroke="none" fill="#e7eeed" fill-rule="evenodd"/></svg>